<mxfile host="Electron" modified="2023-11-20T12:08:44.309Z" agent="Mozilla/5.0 (Windows NT 10.0; Win64; x64) AppleWebKit/537.36 (KHTML, like Gecko) draw.io/22.0.2 Chrome/114.0.5735.289 Electron/25.8.4 Safari/537.36" etag="1sfElCqJdzTqS6UUpsCG" version="22.0.2" type="device">
  <diagram name="Page-1" id="13e1069c-82ec-6db2-03f1-153e76fe0fe0">
    <mxGraphModel dx="4968" dy="1021" grid="1" gridSize="10" guides="1" tooltips="1" connect="1" arrows="1" fold="1" page="1" pageScale="1" pageWidth="1100" pageHeight="850" background="none" math="0" shadow="0">
      <root>
        <mxCell id="0" />
        <mxCell id="1" parent="0" />
        <mxCell id="mmZ-V4t_3WAR9MTo744C-1" value="&amp;nbsp;" style="shape=umlLifeline;perimeter=lifelinePerimeter;whiteSpace=wrap;html=1;container=1;dropTarget=0;collapsible=0;recursiveResize=0;outlineConnect=0;portConstraint=eastwest;newEdgeStyle={&quot;curved&quot;:0,&quot;rounded&quot;:0};participant=umlActor;" parent="1" vertex="1">
          <mxGeometry x="-840" y="80" width="20" height="430" as="geometry" />
        </mxCell>
        <mxCell id="mmZ-V4t_3WAR9MTo744C-2" value="Giao diện" style="shape=umlLifeline;perimeter=lifelinePerimeter;whiteSpace=wrap;html=1;container=1;dropTarget=0;collapsible=0;recursiveResize=0;outlineConnect=0;portConstraint=eastwest;newEdgeStyle={&quot;curved&quot;:0,&quot;rounded&quot;:0};" parent="1" vertex="1">
          <mxGeometry x="-700" y="80" width="80" height="430" as="geometry" />
        </mxCell>
        <mxCell id="mmZ-V4t_3WAR9MTo744C-5" value="" style="html=1;points=[[0,0,0,0,5],[0,1,0,0,-5],[1,0,0,0,5],[1,1,0,0,-5]];perimeter=orthogonalPerimeter;outlineConnect=0;targetShapes=umlLifeline;portConstraint=eastwest;newEdgeStyle={&quot;curved&quot;:0,&quot;rounded&quot;:0};" parent="mmZ-V4t_3WAR9MTo744C-2" vertex="1">
          <mxGeometry x="35" y="80" width="10" height="310" as="geometry" />
        </mxCell>
        <mxCell id="mmZ-V4t_3WAR9MTo744C-6" value="Nhập thông tin&lt;br&gt;đăng nhập" style="html=1;verticalAlign=bottom;startArrow=none;endArrow=block;startSize=8;rounded=0;startFill=0;strokeColor=default;" parent="1" source="mmZ-V4t_3WAR9MTo744C-1" target="mmZ-V4t_3WAR9MTo744C-5" edge="1">
          <mxGeometry x="0.002" relative="1" as="geometry">
            <mxPoint x="-770.189655172414" y="160" as="sourcePoint" />
            <mxPoint x="-635" y="160" as="targetPoint" />
            <Array as="points">
              <mxPoint x="-730" y="160" />
            </Array>
            <mxPoint as="offset" />
          </mxGeometry>
        </mxCell>
        <mxCell id="mmZ-V4t_3WAR9MTo744C-3" value="Hệ thống" style="shape=umlLifeline;perimeter=lifelinePerimeter;whiteSpace=wrap;html=1;container=1;dropTarget=0;collapsible=0;recursiveResize=0;outlineConnect=0;portConstraint=eastwest;newEdgeStyle={&quot;curved&quot;:0,&quot;rounded&quot;:0};" parent="1" vertex="1">
          <mxGeometry x="-540" y="80" width="80" height="430" as="geometry" />
        </mxCell>
        <mxCell id="mmZ-V4t_3WAR9MTo744C-7" value="" style="html=1;points=[[0,0,0,0,5],[0,1,0,0,-5],[1,0,0,0,5],[1,1,0,0,-5]];perimeter=orthogonalPerimeter;outlineConnect=0;targetShapes=umlLifeline;portConstraint=eastwest;newEdgeStyle={&quot;curved&quot;:0,&quot;rounded&quot;:0};" parent="mmZ-V4t_3WAR9MTo744C-3" vertex="1">
          <mxGeometry x="35" y="120" width="10" height="120" as="geometry" />
        </mxCell>
        <mxCell id="mmZ-V4t_3WAR9MTo744C-112" value="" style="html=1;points=[[0,0,0,0,5],[0,1,0,0,-5],[1,0,0,0,5],[1,1,0,0,-5]];perimeter=orthogonalPerimeter;outlineConnect=0;targetShapes=umlLifeline;portConstraint=eastwest;newEdgeStyle={&quot;curved&quot;:0,&quot;rounded&quot;:0};" parent="mmZ-V4t_3WAR9MTo744C-3" vertex="1">
          <mxGeometry x="35" y="280" width="10" height="90" as="geometry" />
        </mxCell>
        <mxCell id="mmZ-V4t_3WAR9MTo744C-91" value="alt" style="shape=umlFrame;whiteSpace=wrap;html=1;pointerEvents=0;recursiveResize=0;container=1;collapsible=0;width=40;height=25;" parent="1" vertex="1">
          <mxGeometry x="-970" y="220" width="690" height="300" as="geometry" />
        </mxCell>
        <mxCell id="mmZ-V4t_3WAR9MTo744C-92" value="Không hợp lệ" style="text;html=1;fontSize=11;" parent="mmZ-V4t_3WAR9MTo744C-91" vertex="1">
          <mxGeometry width="100" height="20" relative="1" as="geometry">
            <mxPoint x="20" y="30" as="offset" />
          </mxGeometry>
        </mxCell>
        <mxCell id="mmZ-V4t_3WAR9MTo744C-93" value="Hợp lệ" style="line;strokeWidth=1;dashed=1;labelPosition=center;verticalLabelPosition=bottom;align=left;verticalAlign=top;spacingLeft=20;spacingTop=15;html=1;whiteSpace=wrap;" parent="mmZ-V4t_3WAR9MTo744C-91" vertex="1">
          <mxGeometry y="55" width="690" height="10" as="geometry" />
        </mxCell>
        <mxCell id="mmZ-V4t_3WAR9MTo744C-117" value="alt" style="shape=umlFrame;whiteSpace=wrap;html=1;pointerEvents=0;recursiveResize=0;container=1;collapsible=0;width=40;height=25;" parent="mmZ-V4t_3WAR9MTo744C-91" vertex="1">
          <mxGeometry x="20" y="120" width="630" height="150" as="geometry" />
        </mxCell>
        <mxCell id="mmZ-V4t_3WAR9MTo744C-118" value="Không chính xác" style="text;html=1;fontSize=11;" parent="mmZ-V4t_3WAR9MTo744C-117" vertex="1">
          <mxGeometry width="100" height="20" relative="1" as="geometry">
            <mxPoint x="20" y="30" as="offset" />
          </mxGeometry>
        </mxCell>
        <mxCell id="mmZ-V4t_3WAR9MTo744C-119" value="Chính xác" style="line;strokeWidth=1;dashed=1;labelPosition=center;verticalLabelPosition=bottom;align=left;verticalAlign=top;spacingLeft=20;spacingTop=15;html=1;whiteSpace=wrap;" parent="mmZ-V4t_3WAR9MTo744C-117" vertex="1">
          <mxGeometry y="75" width="630" height="10" as="geometry" />
        </mxCell>
        <mxCell id="mmZ-V4t_3WAR9MTo744C-103" value="Kiểm tra dữ liệu hợp lệ" style="html=1;verticalAlign=bottom;endArrow=block;curved=0;rounded=0;" parent="1" source="mmZ-V4t_3WAR9MTo744C-5" target="mmZ-V4t_3WAR9MTo744C-7" edge="1">
          <mxGeometry width="80" relative="1" as="geometry">
            <mxPoint x="-620" y="200" as="sourcePoint" />
            <mxPoint x="-540" y="200" as="targetPoint" />
            <Array as="points">
              <mxPoint x="-610" y="200" />
            </Array>
          </mxGeometry>
        </mxCell>
        <mxCell id="mmZ-V4t_3WAR9MTo744C-106" value="dispatch" style="html=1;verticalAlign=bottom;endArrow=block;curved=0;rounded=0;" parent="1" edge="1">
          <mxGeometry width="80" relative="1" as="geometry">
            <mxPoint x="-190" y="190" as="sourcePoint" />
            <mxPoint x="-110" y="190" as="targetPoint" />
          </mxGeometry>
        </mxCell>
        <mxCell id="mmZ-V4t_3WAR9MTo744C-108" value="return" style="html=1;verticalAlign=bottom;endArrow=open;dashed=1;endSize=8;curved=0;rounded=0;" parent="1" edge="1">
          <mxGeometry relative="1" as="geometry">
            <mxPoint x="-110" y="160" as="sourcePoint" />
            <mxPoint x="-190" y="160" as="targetPoint" />
          </mxGeometry>
        </mxCell>
        <mxCell id="mmZ-V4t_3WAR9MTo744C-110" value="Thông báo lỗi" style="html=1;verticalAlign=bottom;endArrow=open;dashed=1;endSize=8;rounded=0;" parent="1" source="mmZ-V4t_3WAR9MTo744C-5" target="mmZ-V4t_3WAR9MTo744C-1" edge="1">
          <mxGeometry relative="1" as="geometry">
            <mxPoint x="-660" y="240" as="sourcePoint" />
            <mxPoint x="-645" y="250" as="targetPoint" />
            <Array as="points">
              <mxPoint x="-750" y="260" />
            </Array>
          </mxGeometry>
        </mxCell>
        <mxCell id="mmZ-V4t_3WAR9MTo744C-109" value="Thông tin đăng nhập&lt;br style=&quot;border-color: var(--border-color);&quot;&gt;không hợp lệ" style="html=1;verticalAlign=bottom;endArrow=open;dashed=1;endSize=8;rounded=0;" parent="1" source="mmZ-V4t_3WAR9MTo744C-7" target="mmZ-V4t_3WAR9MTo744C-5" edge="1">
          <mxGeometry relative="1" as="geometry">
            <mxPoint x="-525" y="320" as="sourcePoint" />
            <mxPoint x="-675" y="295" as="targetPoint" />
            <Array as="points">
              <mxPoint x="-580" y="250" />
            </Array>
          </mxGeometry>
        </mxCell>
        <mxCell id="mmZ-V4t_3WAR9MTo744C-122" value="Thông báo lỗi" style="html=1;verticalAlign=bottom;endArrow=open;dashed=1;endSize=8;rounded=0;" parent="1" source="mmZ-V4t_3WAR9MTo744C-5" target="mmZ-V4t_3WAR9MTo744C-1" edge="1">
          <mxGeometry relative="1" as="geometry">
            <mxPoint x="-665" y="430" as="sourcePoint" />
            <mxPoint x="-830.189655172414" y="430" as="targetPoint" />
            <Array as="points">
              <mxPoint x="-750" y="400" />
            </Array>
          </mxGeometry>
        </mxCell>
        <mxCell id="mmZ-V4t_3WAR9MTo744C-123" value="Đăng nhập thành công" style="html=1;verticalAlign=bottom;endArrow=open;dashed=1;endSize=8;rounded=0;" parent="1" source="mmZ-V4t_3WAR9MTo744C-112" target="mmZ-V4t_3WAR9MTo744C-5" edge="1">
          <mxGeometry x="0.0023" relative="1" as="geometry">
            <mxPoint x="-505" y="500" as="sourcePoint" />
            <mxPoint x="-655" y="500" as="targetPoint" />
            <Array as="points">
              <mxPoint x="-580" y="450" />
            </Array>
            <mxPoint as="offset" />
          </mxGeometry>
        </mxCell>
        <mxCell id="mmZ-V4t_3WAR9MTo744C-121" value="Thông tin đăng nhập&lt;br style=&quot;border-color: var(--border-color);&quot;&gt;không chính xác" style="html=1;verticalAlign=bottom;endArrow=open;dashed=1;endSize=8;rounded=0;" parent="1" source="mmZ-V4t_3WAR9MTo744C-112" target="mmZ-V4t_3WAR9MTo744C-5" edge="1">
          <mxGeometry relative="1" as="geometry">
            <mxPoint x="-510" y="400" as="sourcePoint" />
            <mxPoint x="-655" y="420" as="targetPoint" />
            <Array as="points">
              <mxPoint x="-570" y="380" />
            </Array>
          </mxGeometry>
        </mxCell>
        <mxCell id="mmZ-V4t_3WAR9MTo744C-142" value="dispatch" style="html=1;verticalAlign=bottom;endArrow=block;curved=0;rounded=0;" parent="1" edge="1">
          <mxGeometry width="80" relative="1" as="geometry">
            <mxPoint x="-1250" y="230" as="sourcePoint" />
            <mxPoint x="-1170" y="230" as="targetPoint" />
          </mxGeometry>
        </mxCell>
        <mxCell id="mmZ-V4t_3WAR9MTo744C-143" value="return" style="html=1;verticalAlign=bottom;endArrow=open;dashed=1;endSize=8;curved=0;rounded=0;" parent="1" edge="1">
          <mxGeometry relative="1" as="geometry">
            <mxPoint x="-1170" y="200" as="sourcePoint" />
            <mxPoint x="-1250" y="200" as="targetPoint" />
          </mxGeometry>
        </mxCell>
        <mxCell id="mmZ-V4t_3WAR9MTo744C-149" value="&lt;b&gt;&lt;font style=&quot;font-size: 18px;&quot;&gt;LOGIN&lt;/font&gt;&lt;/b&gt;" style="text;html=1;align=center;verticalAlign=middle;resizable=0;points=[];autosize=1;strokeColor=none;fillColor=none;" parent="1" vertex="1">
          <mxGeometry x="-990" y="10" width="80" height="40" as="geometry" />
        </mxCell>
        <mxCell id="mmZ-V4t_3WAR9MTo744C-150" value="&lt;b&gt;&lt;font style=&quot;font-size: 18px;&quot;&gt;ADD ITEM/CATEGORY&lt;/font&gt;&lt;/b&gt;" style="text;html=1;align=center;verticalAlign=middle;resizable=0;points=[];autosize=1;strokeColor=none;fillColor=none;" parent="1" vertex="1">
          <mxGeometry x="-2370" y="5" width="220" height="40" as="geometry" />
        </mxCell>
        <mxCell id="mmZ-V4t_3WAR9MTo744C-151" value="CSDL" style="shape=umlLifeline;perimeter=lifelinePerimeter;whiteSpace=wrap;html=1;container=1;dropTarget=0;collapsible=0;recursiveResize=0;outlineConnect=0;portConstraint=eastwest;newEdgeStyle={&quot;curved&quot;:0,&quot;rounded&quot;:0};" parent="1" vertex="1">
          <mxGeometry x="-390" y="80" width="80" height="430" as="geometry" />
        </mxCell>
        <mxCell id="mmZ-V4t_3WAR9MTo744C-157" value="" style="html=1;points=[[0,0,0,0,5],[0,1,0,0,-5],[1,0,0,0,5],[1,1,0,0,-5]];perimeter=orthogonalPerimeter;outlineConnect=0;targetShapes=umlLifeline;portConstraint=eastwest;newEdgeStyle={&quot;curved&quot;:0,&quot;rounded&quot;:0};" parent="mmZ-V4t_3WAR9MTo744C-151" vertex="1">
          <mxGeometry x="35" y="240" width="10" height="40" as="geometry" />
        </mxCell>
        <mxCell id="mmZ-V4t_3WAR9MTo744C-158" value="" style="edgeStyle=orthogonalEdgeStyle;rounded=0;orthogonalLoop=1;jettySize=auto;html=1;curved=0;" parent="1" source="mmZ-V4t_3WAR9MTo744C-7" target="mmZ-V4t_3WAR9MTo744C-157" edge="1">
          <mxGeometry relative="1" as="geometry">
            <Array as="points">
              <mxPoint x="-430" y="320" />
              <mxPoint x="-430" y="320" />
            </Array>
          </mxGeometry>
        </mxCell>
        <mxCell id="mmZ-V4t_3WAR9MTo744C-159" value="Kiểm tra &lt;br&gt;thông tin đăng nhập" style="edgeLabel;html=1;align=center;verticalAlign=middle;resizable=0;points=[];" parent="mmZ-V4t_3WAR9MTo744C-158" vertex="1" connectable="0">
          <mxGeometry x="0.1887" y="1" relative="1" as="geometry">
            <mxPoint x="-8" y="-19" as="offset" />
          </mxGeometry>
        </mxCell>
        <mxCell id="mmZ-V4t_3WAR9MTo744C-160" value="Kết quả" style="html=1;verticalAlign=bottom;endArrow=open;dashed=1;endSize=8;curved=0;rounded=0;exitX=0.5;exitY=1;exitDx=0;exitDy=0;exitPerimeter=0;" parent="1" source="mmZ-V4t_3WAR9MTo744C-157" target="mmZ-V4t_3WAR9MTo744C-112" edge="1">
          <mxGeometry relative="1" as="geometry">
            <mxPoint x="-190" y="160" as="sourcePoint" />
            <mxPoint x="-270" y="160" as="targetPoint" />
          </mxGeometry>
        </mxCell>
        <mxCell id="mmZ-V4t_3WAR9MTo744C-124" value="Thông báo thành công" style="html=1;verticalAlign=bottom;endArrow=open;dashed=1;endSize=8;rounded=0;" parent="1" source="mmZ-V4t_3WAR9MTo744C-5" target="mmZ-V4t_3WAR9MTo744C-1" edge="1">
          <mxGeometry x="0.002" relative="1" as="geometry">
            <mxPoint x="-655" y="520" as="sourcePoint" />
            <mxPoint x="-820.189655172414" y="520" as="targetPoint" />
            <Array as="points">
              <mxPoint x="-720" y="470" />
            </Array>
            <mxPoint as="offset" />
          </mxGeometry>
        </mxCell>
        <mxCell id="mmZ-V4t_3WAR9MTo744C-161" value="&amp;nbsp;" style="shape=umlLifeline;perimeter=lifelinePerimeter;whiteSpace=wrap;html=1;container=1;dropTarget=0;collapsible=0;recursiveResize=0;outlineConnect=0;portConstraint=eastwest;newEdgeStyle={&quot;curved&quot;:0,&quot;rounded&quot;:0};participant=umlActor;" parent="1" vertex="1">
          <mxGeometry x="-2270" y="110" width="20" height="430" as="geometry" />
        </mxCell>
        <mxCell id="mmZ-V4t_3WAR9MTo744C-162" value="Giao diện" style="shape=umlLifeline;perimeter=lifelinePerimeter;whiteSpace=wrap;html=1;container=1;dropTarget=0;collapsible=0;recursiveResize=0;outlineConnect=0;portConstraint=eastwest;newEdgeStyle={&quot;curved&quot;:0,&quot;rounded&quot;:0};" parent="1" vertex="1">
          <mxGeometry x="-2130" y="110" width="80" height="430" as="geometry" />
        </mxCell>
        <mxCell id="mmZ-V4t_3WAR9MTo744C-163" value="" style="html=1;points=[[0,0,0,0,5],[0,1,0,0,-5],[1,0,0,0,5],[1,1,0,0,-5]];perimeter=orthogonalPerimeter;outlineConnect=0;targetShapes=umlLifeline;portConstraint=eastwest;newEdgeStyle={&quot;curved&quot;:0,&quot;rounded&quot;:0};" parent="mmZ-V4t_3WAR9MTo744C-162" vertex="1">
          <mxGeometry x="35" y="80" width="10" height="310" as="geometry" />
        </mxCell>
        <mxCell id="mmZ-V4t_3WAR9MTo744C-164" value="Thông tin về&lt;br&gt;vật tư/loại vật tư mới" style="html=1;verticalAlign=bottom;startArrow=none;endArrow=block;startSize=8;rounded=0;startFill=0;strokeColor=default;" parent="1" source="mmZ-V4t_3WAR9MTo744C-161" target="mmZ-V4t_3WAR9MTo744C-163" edge="1">
          <mxGeometry x="0.002" relative="1" as="geometry">
            <mxPoint x="-2200.189655172414" y="190" as="sourcePoint" />
            <mxPoint x="-2065" y="190" as="targetPoint" />
            <Array as="points">
              <mxPoint x="-2160" y="190" />
            </Array>
            <mxPoint as="offset" />
          </mxGeometry>
        </mxCell>
        <mxCell id="mmZ-V4t_3WAR9MTo744C-165" value="Hệ thống" style="shape=umlLifeline;perimeter=lifelinePerimeter;whiteSpace=wrap;html=1;container=1;dropTarget=0;collapsible=0;recursiveResize=0;outlineConnect=0;portConstraint=eastwest;newEdgeStyle={&quot;curved&quot;:0,&quot;rounded&quot;:0};" parent="1" vertex="1">
          <mxGeometry x="-1970" y="110" width="80" height="430" as="geometry" />
        </mxCell>
        <mxCell id="mmZ-V4t_3WAR9MTo744C-166" value="" style="html=1;points=[[0,0,0,0,5],[0,1,0,0,-5],[1,0,0,0,5],[1,1,0,0,-5]];perimeter=orthogonalPerimeter;outlineConnect=0;targetShapes=umlLifeline;portConstraint=eastwest;newEdgeStyle={&quot;curved&quot;:0,&quot;rounded&quot;:0};" parent="mmZ-V4t_3WAR9MTo744C-165" vertex="1">
          <mxGeometry x="35" y="120" width="10" height="120" as="geometry" />
        </mxCell>
        <mxCell id="mmZ-V4t_3WAR9MTo744C-167" value="" style="html=1;points=[[0,0,0,0,5],[0,1,0,0,-5],[1,0,0,0,5],[1,1,0,0,-5]];perimeter=orthogonalPerimeter;outlineConnect=0;targetShapes=umlLifeline;portConstraint=eastwest;newEdgeStyle={&quot;curved&quot;:0,&quot;rounded&quot;:0};" parent="mmZ-V4t_3WAR9MTo744C-165" vertex="1">
          <mxGeometry x="35" y="280" width="10" height="90" as="geometry" />
        </mxCell>
        <mxCell id="mmZ-V4t_3WAR9MTo744C-168" value="alt" style="shape=umlFrame;whiteSpace=wrap;html=1;pointerEvents=0;recursiveResize=0;container=1;collapsible=0;width=40;height=25;" parent="1" vertex="1">
          <mxGeometry x="-2400" y="250" width="690" height="300" as="geometry" />
        </mxCell>
        <mxCell id="mmZ-V4t_3WAR9MTo744C-169" value="Không hợp lệ" style="text;html=1;fontSize=11;" parent="mmZ-V4t_3WAR9MTo744C-168" vertex="1">
          <mxGeometry width="100" height="20" relative="1" as="geometry">
            <mxPoint x="20" y="30" as="offset" />
          </mxGeometry>
        </mxCell>
        <mxCell id="mmZ-V4t_3WAR9MTo744C-170" value="Hợp lệ" style="line;strokeWidth=1;dashed=1;labelPosition=center;verticalLabelPosition=bottom;align=left;verticalAlign=top;spacingLeft=20;spacingTop=15;html=1;whiteSpace=wrap;" parent="mmZ-V4t_3WAR9MTo744C-168" vertex="1">
          <mxGeometry y="55" width="690" height="10" as="geometry" />
        </mxCell>
        <mxCell id="mmZ-V4t_3WAR9MTo744C-171" value="alt" style="shape=umlFrame;whiteSpace=wrap;html=1;pointerEvents=0;recursiveResize=0;container=1;collapsible=0;width=40;height=25;" parent="mmZ-V4t_3WAR9MTo744C-168" vertex="1">
          <mxGeometry x="20" y="120" width="630" height="150" as="geometry" />
        </mxCell>
        <mxCell id="mmZ-V4t_3WAR9MTo744C-172" value="Không thành công" style="text;html=1;fontSize=11;" parent="mmZ-V4t_3WAR9MTo744C-171" vertex="1">
          <mxGeometry width="100" height="20" relative="1" as="geometry">
            <mxPoint x="20" y="30" as="offset" />
          </mxGeometry>
        </mxCell>
        <mxCell id="mmZ-V4t_3WAR9MTo744C-173" value="Thành công" style="line;strokeWidth=1;dashed=1;labelPosition=center;verticalLabelPosition=bottom;align=left;verticalAlign=top;spacingLeft=20;spacingTop=15;html=1;whiteSpace=wrap;" parent="mmZ-V4t_3WAR9MTo744C-171" vertex="1">
          <mxGeometry y="75" width="630" height="10" as="geometry" />
        </mxCell>
        <mxCell id="mmZ-V4t_3WAR9MTo744C-174" value="Kiểm tra dữ liệu hợp lệ" style="html=1;verticalAlign=bottom;endArrow=block;curved=0;rounded=0;" parent="1" source="mmZ-V4t_3WAR9MTo744C-163" target="mmZ-V4t_3WAR9MTo744C-166" edge="1">
          <mxGeometry width="80" relative="1" as="geometry">
            <mxPoint x="-2050" y="230" as="sourcePoint" />
            <mxPoint x="-1970" y="230" as="targetPoint" />
            <Array as="points">
              <mxPoint x="-2040" y="230" />
            </Array>
          </mxGeometry>
        </mxCell>
        <mxCell id="mmZ-V4t_3WAR9MTo744C-175" value="Thông báo lỗi" style="html=1;verticalAlign=bottom;endArrow=open;dashed=1;endSize=8;rounded=0;" parent="1" source="mmZ-V4t_3WAR9MTo744C-163" target="mmZ-V4t_3WAR9MTo744C-161" edge="1">
          <mxGeometry x="0.003" relative="1" as="geometry">
            <mxPoint x="-2090" y="270" as="sourcePoint" />
            <mxPoint x="-2075" y="280" as="targetPoint" />
            <Array as="points">
              <mxPoint x="-2180" y="290" />
            </Array>
            <mxPoint as="offset" />
          </mxGeometry>
        </mxCell>
        <mxCell id="mmZ-V4t_3WAR9MTo744C-176" value="Thông tin nhập vào&lt;br style=&quot;border-color: var(--border-color);&quot;&gt;không hợp lệ" style="html=1;verticalAlign=bottom;endArrow=open;dashed=1;endSize=8;rounded=0;" parent="1" source="mmZ-V4t_3WAR9MTo744C-166" target="mmZ-V4t_3WAR9MTo744C-163" edge="1">
          <mxGeometry relative="1" as="geometry">
            <mxPoint x="-1955" y="350" as="sourcePoint" />
            <mxPoint x="-2105" y="325" as="targetPoint" />
            <Array as="points">
              <mxPoint x="-2010" y="280" />
            </Array>
          </mxGeometry>
        </mxCell>
        <mxCell id="mmZ-V4t_3WAR9MTo744C-177" value="Thông báo lỗi" style="html=1;verticalAlign=bottom;endArrow=open;dashed=1;endSize=8;rounded=0;" parent="1" source="mmZ-V4t_3WAR9MTo744C-163" target="mmZ-V4t_3WAR9MTo744C-161" edge="1">
          <mxGeometry relative="1" as="geometry">
            <mxPoint x="-2095" y="460" as="sourcePoint" />
            <mxPoint x="-2260.189655172414" y="460" as="targetPoint" />
            <Array as="points">
              <mxPoint x="-2180" y="430" />
            </Array>
          </mxGeometry>
        </mxCell>
        <mxCell id="mmZ-V4t_3WAR9MTo744C-178" value="Thêm thành công" style="html=1;verticalAlign=bottom;endArrow=open;dashed=1;endSize=8;rounded=0;" parent="1" source="mmZ-V4t_3WAR9MTo744C-167" target="mmZ-V4t_3WAR9MTo744C-163" edge="1">
          <mxGeometry relative="1" as="geometry">
            <mxPoint x="-1935" y="530" as="sourcePoint" />
            <mxPoint x="-2085" y="530" as="targetPoint" />
            <Array as="points">
              <mxPoint x="-2010" y="480" />
            </Array>
            <mxPoint as="offset" />
          </mxGeometry>
        </mxCell>
        <mxCell id="mmZ-V4t_3WAR9MTo744C-179" value="Thêm thất bại" style="html=1;verticalAlign=bottom;endArrow=open;dashed=1;endSize=8;rounded=0;" parent="1" source="mmZ-V4t_3WAR9MTo744C-167" target="mmZ-V4t_3WAR9MTo744C-163" edge="1">
          <mxGeometry relative="1" as="geometry">
            <mxPoint x="-1940" y="430" as="sourcePoint" />
            <mxPoint x="-2085" y="450" as="targetPoint" />
            <Array as="points">
              <mxPoint x="-2000" y="410" />
            </Array>
          </mxGeometry>
        </mxCell>
        <mxCell id="mmZ-V4t_3WAR9MTo744C-180" value="CSDL" style="shape=umlLifeline;perimeter=lifelinePerimeter;whiteSpace=wrap;html=1;container=1;dropTarget=0;collapsible=0;recursiveResize=0;outlineConnect=0;portConstraint=eastwest;newEdgeStyle={&quot;curved&quot;:0,&quot;rounded&quot;:0};" parent="1" vertex="1">
          <mxGeometry x="-1820" y="110" width="80" height="430" as="geometry" />
        </mxCell>
        <mxCell id="mmZ-V4t_3WAR9MTo744C-181" value="" style="html=1;points=[[0,0,0,0,5],[0,1,0,0,-5],[1,0,0,0,5],[1,1,0,0,-5]];perimeter=orthogonalPerimeter;outlineConnect=0;targetShapes=umlLifeline;portConstraint=eastwest;newEdgeStyle={&quot;curved&quot;:0,&quot;rounded&quot;:0};" parent="mmZ-V4t_3WAR9MTo744C-180" vertex="1">
          <mxGeometry x="35" y="240" width="10" height="40" as="geometry" />
        </mxCell>
        <mxCell id="mmZ-V4t_3WAR9MTo744C-182" value="" style="edgeStyle=orthogonalEdgeStyle;rounded=0;orthogonalLoop=1;jettySize=auto;html=1;curved=0;" parent="1" source="mmZ-V4t_3WAR9MTo744C-166" target="mmZ-V4t_3WAR9MTo744C-181" edge="1">
          <mxGeometry relative="1" as="geometry">
            <Array as="points">
              <mxPoint x="-1860" y="350" />
              <mxPoint x="-1860" y="350" />
            </Array>
          </mxGeometry>
        </mxCell>
        <mxCell id="mmZ-V4t_3WAR9MTo744C-183" value="Thêm vật tư/ loại vật tư" style="edgeLabel;html=1;align=center;verticalAlign=middle;resizable=0;points=[];" parent="mmZ-V4t_3WAR9MTo744C-182" vertex="1" connectable="0">
          <mxGeometry x="0.1887" y="1" relative="1" as="geometry">
            <mxPoint x="-8" y="-19" as="offset" />
          </mxGeometry>
        </mxCell>
        <mxCell id="mmZ-V4t_3WAR9MTo744C-184" value="Kết quả" style="html=1;verticalAlign=bottom;endArrow=open;dashed=1;endSize=8;curved=0;rounded=0;exitX=0.5;exitY=1;exitDx=0;exitDy=0;exitPerimeter=0;" parent="1" source="mmZ-V4t_3WAR9MTo744C-181" target="mmZ-V4t_3WAR9MTo744C-167" edge="1">
          <mxGeometry relative="1" as="geometry">
            <mxPoint x="-1620" y="190" as="sourcePoint" />
            <mxPoint x="-1700" y="190" as="targetPoint" />
          </mxGeometry>
        </mxCell>
        <mxCell id="mmZ-V4t_3WAR9MTo744C-185" value="Thông báo thành công" style="html=1;verticalAlign=bottom;endArrow=open;dashed=1;endSize=8;rounded=0;" parent="1" source="mmZ-V4t_3WAR9MTo744C-163" target="mmZ-V4t_3WAR9MTo744C-161" edge="1">
          <mxGeometry x="0.002" relative="1" as="geometry">
            <mxPoint x="-2085" y="550" as="sourcePoint" />
            <mxPoint x="-2250.189655172414" y="550" as="targetPoint" />
            <Array as="points">
              <mxPoint x="-2150" y="500" />
            </Array>
            <mxPoint as="offset" />
          </mxGeometry>
        </mxCell>
        <mxCell id="PJhLAQzegtzsBgXp3Pxs-55" value="&amp;nbsp;" style="shape=umlLifeline;perimeter=lifelinePerimeter;whiteSpace=wrap;html=1;container=1;dropTarget=0;collapsible=0;recursiveResize=0;outlineConnect=0;portConstraint=eastwest;newEdgeStyle={&quot;curved&quot;:0,&quot;rounded&quot;:0};participant=umlActor;" vertex="1" parent="1">
          <mxGeometry x="-3100" y="80" width="20" height="590" as="geometry" />
        </mxCell>
        <mxCell id="PJhLAQzegtzsBgXp3Pxs-56" value="Giao diện" style="shape=umlLifeline;perimeter=lifelinePerimeter;whiteSpace=wrap;html=1;container=1;dropTarget=0;collapsible=0;recursiveResize=0;outlineConnect=0;portConstraint=eastwest;newEdgeStyle={&quot;curved&quot;:0,&quot;rounded&quot;:0};" vertex="1" parent="1">
          <mxGeometry x="-2960" y="80" width="80" height="590" as="geometry" />
        </mxCell>
        <mxCell id="PJhLAQzegtzsBgXp3Pxs-57" value="" style="html=1;points=[[0,0,0,0,5],[0,1,0,0,-5],[1,0,0,0,5],[1,1,0,0,-5]];perimeter=orthogonalPerimeter;outlineConnect=0;targetShapes=umlLifeline;portConstraint=eastwest;newEdgeStyle={&quot;curved&quot;:0,&quot;rounded&quot;:0};" vertex="1" parent="PJhLAQzegtzsBgXp3Pxs-56">
          <mxGeometry x="35" y="80" width="10" height="470" as="geometry" />
        </mxCell>
        <mxCell id="PJhLAQzegtzsBgXp3Pxs-58" value="Thông tin về&lt;br&gt;vật tư/loại vật tư&lt;br&gt;cần chỉnh sửa" style="html=1;verticalAlign=bottom;startArrow=none;endArrow=block;startSize=8;rounded=0;startFill=0;strokeColor=default;" edge="1" parent="1" source="PJhLAQzegtzsBgXp3Pxs-55" target="PJhLAQzegtzsBgXp3Pxs-57">
          <mxGeometry x="0.002" relative="1" as="geometry">
            <mxPoint x="-3030.189655172414" y="160" as="sourcePoint" />
            <mxPoint x="-2895" y="160" as="targetPoint" />
            <Array as="points">
              <mxPoint x="-2990" y="160" />
            </Array>
            <mxPoint as="offset" />
          </mxGeometry>
        </mxCell>
        <mxCell id="PJhLAQzegtzsBgXp3Pxs-59" value="Hệ thống" style="shape=umlLifeline;perimeter=lifelinePerimeter;whiteSpace=wrap;html=1;container=1;dropTarget=0;collapsible=0;recursiveResize=0;outlineConnect=0;portConstraint=eastwest;newEdgeStyle={&quot;curved&quot;:0,&quot;rounded&quot;:0};" vertex="1" parent="1">
          <mxGeometry x="-2800" y="80" width="80" height="590" as="geometry" />
        </mxCell>
        <mxCell id="PJhLAQzegtzsBgXp3Pxs-60" value="" style="html=1;points=[[0,0,0,0,5],[0,1,0,0,-5],[1,0,0,0,5],[1,1,0,0,-5]];perimeter=orthogonalPerimeter;outlineConnect=0;targetShapes=umlLifeline;portConstraint=eastwest;newEdgeStyle={&quot;curved&quot;:0,&quot;rounded&quot;:0};" vertex="1" parent="PJhLAQzegtzsBgXp3Pxs-59">
          <mxGeometry x="35" y="120" width="10" height="120" as="geometry" />
        </mxCell>
        <mxCell id="PJhLAQzegtzsBgXp3Pxs-61" value="" style="html=1;points=[[0,0,0,0,5],[0,1,0,0,-5],[1,0,0,0,5],[1,1,0,0,-5]];perimeter=orthogonalPerimeter;outlineConnect=0;targetShapes=umlLifeline;portConstraint=eastwest;newEdgeStyle={&quot;curved&quot;:0,&quot;rounded&quot;:0};" vertex="1" parent="PJhLAQzegtzsBgXp3Pxs-59">
          <mxGeometry x="35" y="280" width="10" height="90" as="geometry" />
        </mxCell>
        <mxCell id="PJhLAQzegtzsBgXp3Pxs-82" value="" style="html=1;points=[[0,0,0,0,5],[0,1,0,0,-5],[1,0,0,0,5],[1,1,0,0,-5]];perimeter=orthogonalPerimeter;outlineConnect=0;targetShapes=umlLifeline;portConstraint=eastwest;newEdgeStyle={&quot;curved&quot;:0,&quot;rounded&quot;:0};" vertex="1" parent="PJhLAQzegtzsBgXp3Pxs-59">
          <mxGeometry x="35" y="440" width="10" height="92" as="geometry" />
        </mxCell>
        <mxCell id="PJhLAQzegtzsBgXp3Pxs-62" value="alt" style="shape=umlFrame;whiteSpace=wrap;html=1;pointerEvents=0;recursiveResize=0;container=1;collapsible=0;width=40;height=25;" vertex="1" parent="1">
          <mxGeometry x="-3270" y="220" width="740" height="480" as="geometry" />
        </mxCell>
        <mxCell id="PJhLAQzegtzsBgXp3Pxs-63" value="Không hợp lệ" style="text;html=1;fontSize=11;" vertex="1" parent="PJhLAQzegtzsBgXp3Pxs-62">
          <mxGeometry width="100" height="20" relative="1" as="geometry">
            <mxPoint x="20" y="30" as="offset" />
          </mxGeometry>
        </mxCell>
        <mxCell id="PJhLAQzegtzsBgXp3Pxs-64" value="Hợp lệ" style="line;strokeWidth=1;dashed=1;labelPosition=center;verticalLabelPosition=bottom;align=left;verticalAlign=top;spacingLeft=20;spacingTop=15;html=1;whiteSpace=wrap;" vertex="1" parent="PJhLAQzegtzsBgXp3Pxs-62">
          <mxGeometry y="55" width="740" height="10" as="geometry" />
        </mxCell>
        <mxCell id="PJhLAQzegtzsBgXp3Pxs-65" value="alt" style="shape=umlFrame;whiteSpace=wrap;html=1;pointerEvents=0;recursiveResize=0;container=1;collapsible=0;width=40;height=25;" vertex="1" parent="PJhLAQzegtzsBgXp3Pxs-62">
          <mxGeometry x="50" y="120" width="670" height="340" as="geometry" />
        </mxCell>
        <mxCell id="PJhLAQzegtzsBgXp3Pxs-66" value="Không tồn tại" style="text;html=1;fontSize=11;" vertex="1" parent="PJhLAQzegtzsBgXp3Pxs-65">
          <mxGeometry width="100" height="20" relative="1" as="geometry">
            <mxPoint x="20" y="30" as="offset" />
          </mxGeometry>
        </mxCell>
        <mxCell id="PJhLAQzegtzsBgXp3Pxs-67" value="Tồn tại" style="line;strokeWidth=1;dashed=1;labelPosition=center;verticalLabelPosition=bottom;align=left;verticalAlign=top;spacingLeft=20;spacingTop=15;html=1;whiteSpace=wrap;" vertex="1" parent="PJhLAQzegtzsBgXp3Pxs-65">
          <mxGeometry y="75" width="670" height="10" as="geometry" />
        </mxCell>
        <mxCell id="PJhLAQzegtzsBgXp3Pxs-90" value="alt" style="shape=umlFrame;whiteSpace=wrap;html=1;pointerEvents=0;recursiveResize=0;container=1;collapsible=0;width=40;height=25;" vertex="1" parent="PJhLAQzegtzsBgXp3Pxs-65">
          <mxGeometry x="20" y="150" width="630" height="150" as="geometry" />
        </mxCell>
        <mxCell id="PJhLAQzegtzsBgXp3Pxs-91" value="Không thành công" style="text;html=1;fontSize=11;" vertex="1" parent="PJhLAQzegtzsBgXp3Pxs-90">
          <mxGeometry width="100" height="20" relative="1" as="geometry">
            <mxPoint x="20" y="30" as="offset" />
          </mxGeometry>
        </mxCell>
        <mxCell id="PJhLAQzegtzsBgXp3Pxs-92" value="Thành công" style="line;strokeWidth=1;dashed=1;labelPosition=center;verticalLabelPosition=bottom;align=left;verticalAlign=top;spacingLeft=20;spacingTop=15;html=1;whiteSpace=wrap;" vertex="1" parent="PJhLAQzegtzsBgXp3Pxs-90">
          <mxGeometry y="75" width="630" height="10" as="geometry" />
        </mxCell>
        <mxCell id="PJhLAQzegtzsBgXp3Pxs-68" value="Kiểm tra dữ liệu hợp lệ" style="html=1;verticalAlign=bottom;endArrow=block;curved=0;rounded=0;" edge="1" parent="1" source="PJhLAQzegtzsBgXp3Pxs-57" target="PJhLAQzegtzsBgXp3Pxs-60">
          <mxGeometry width="80" relative="1" as="geometry">
            <mxPoint x="-2880" y="200" as="sourcePoint" />
            <mxPoint x="-2800" y="200" as="targetPoint" />
            <Array as="points">
              <mxPoint x="-2870" y="200" />
            </Array>
          </mxGeometry>
        </mxCell>
        <mxCell id="PJhLAQzegtzsBgXp3Pxs-69" value="Thông báo lỗi" style="html=1;verticalAlign=bottom;endArrow=open;dashed=1;endSize=8;rounded=0;" edge="1" parent="1" source="PJhLAQzegtzsBgXp3Pxs-57" target="PJhLAQzegtzsBgXp3Pxs-55">
          <mxGeometry x="0.003" relative="1" as="geometry">
            <mxPoint x="-2920" y="240" as="sourcePoint" />
            <mxPoint x="-2905" y="250" as="targetPoint" />
            <Array as="points">
              <mxPoint x="-3010" y="260" />
            </Array>
            <mxPoint as="offset" />
          </mxGeometry>
        </mxCell>
        <mxCell id="PJhLAQzegtzsBgXp3Pxs-70" value="Thông tin nhập vào&lt;br style=&quot;border-color: var(--border-color);&quot;&gt;không hợp lệ" style="html=1;verticalAlign=bottom;endArrow=open;dashed=1;endSize=8;rounded=0;" edge="1" parent="1" source="PJhLAQzegtzsBgXp3Pxs-60" target="PJhLAQzegtzsBgXp3Pxs-57">
          <mxGeometry relative="1" as="geometry">
            <mxPoint x="-2785" y="320" as="sourcePoint" />
            <mxPoint x="-2935" y="295" as="targetPoint" />
            <Array as="points">
              <mxPoint x="-2840" y="250" />
            </Array>
          </mxGeometry>
        </mxCell>
        <mxCell id="PJhLAQzegtzsBgXp3Pxs-71" value="Thông báo lỗi" style="html=1;verticalAlign=bottom;endArrow=open;dashed=1;endSize=8;rounded=0;" edge="1" parent="1" source="PJhLAQzegtzsBgXp3Pxs-57" target="PJhLAQzegtzsBgXp3Pxs-55">
          <mxGeometry relative="1" as="geometry">
            <mxPoint x="-2925" y="430" as="sourcePoint" />
            <mxPoint x="-3090.189655172414" y="430" as="targetPoint" />
            <Array as="points">
              <mxPoint x="-3010" y="400" />
            </Array>
          </mxGeometry>
        </mxCell>
        <mxCell id="PJhLAQzegtzsBgXp3Pxs-72" value="Cập nhật thông tin" style="html=1;verticalAlign=bottom;endArrow=open;dashed=1;endSize=8;rounded=0;" edge="1" parent="1" source="PJhLAQzegtzsBgXp3Pxs-61" target="PJhLAQzegtzsBgXp3Pxs-74">
          <mxGeometry relative="1" as="geometry">
            <mxPoint x="-2765" y="500" as="sourcePoint" />
            <mxPoint x="-2915" y="500" as="targetPoint" />
            <Array as="points">
              <mxPoint x="-2680" y="450" />
            </Array>
            <mxPoint as="offset" />
          </mxGeometry>
        </mxCell>
        <mxCell id="PJhLAQzegtzsBgXp3Pxs-73" value="Không tồn tại" style="html=1;verticalAlign=bottom;endArrow=open;dashed=1;endSize=8;rounded=0;" edge="1" parent="1" source="PJhLAQzegtzsBgXp3Pxs-61" target="PJhLAQzegtzsBgXp3Pxs-57">
          <mxGeometry relative="1" as="geometry">
            <mxPoint x="-2770" y="400" as="sourcePoint" />
            <mxPoint x="-2915" y="420" as="targetPoint" />
            <Array as="points">
              <mxPoint x="-2830" y="380" />
            </Array>
          </mxGeometry>
        </mxCell>
        <mxCell id="PJhLAQzegtzsBgXp3Pxs-74" value="CSDL" style="shape=umlLifeline;perimeter=lifelinePerimeter;whiteSpace=wrap;html=1;container=1;dropTarget=0;collapsible=0;recursiveResize=0;outlineConnect=0;portConstraint=eastwest;newEdgeStyle={&quot;curved&quot;:0,&quot;rounded&quot;:0};" vertex="1" parent="1">
          <mxGeometry x="-2650" y="80" width="80" height="590" as="geometry" />
        </mxCell>
        <mxCell id="PJhLAQzegtzsBgXp3Pxs-75" value="" style="html=1;points=[[0,0,0,0,5],[0,1,0,0,-5],[1,0,0,0,5],[1,1,0,0,-5]];perimeter=orthogonalPerimeter;outlineConnect=0;targetShapes=umlLifeline;portConstraint=eastwest;newEdgeStyle={&quot;curved&quot;:0,&quot;rounded&quot;:0};" vertex="1" parent="PJhLAQzegtzsBgXp3Pxs-74">
          <mxGeometry x="35" y="240" width="10" height="40" as="geometry" />
        </mxCell>
        <mxCell id="PJhLAQzegtzsBgXp3Pxs-93" value="" style="html=1;points=[[0,0,0,0,5],[0,1,0,0,-5],[1,0,0,0,5],[1,1,0,0,-5]];perimeter=orthogonalPerimeter;outlineConnect=0;targetShapes=umlLifeline;portConstraint=eastwest;newEdgeStyle={&quot;curved&quot;:0,&quot;rounded&quot;:0};" vertex="1" parent="PJhLAQzegtzsBgXp3Pxs-74">
          <mxGeometry x="40" y="370" width="10" height="70" as="geometry" />
        </mxCell>
        <mxCell id="PJhLAQzegtzsBgXp3Pxs-76" value="" style="edgeStyle=orthogonalEdgeStyle;rounded=0;orthogonalLoop=1;jettySize=auto;html=1;curved=0;" edge="1" parent="1" source="PJhLAQzegtzsBgXp3Pxs-60" target="PJhLAQzegtzsBgXp3Pxs-75">
          <mxGeometry relative="1" as="geometry">
            <Array as="points">
              <mxPoint x="-2690" y="320" />
              <mxPoint x="-2690" y="320" />
            </Array>
          </mxGeometry>
        </mxCell>
        <mxCell id="PJhLAQzegtzsBgXp3Pxs-77" value="Kiểm tra sự tồn tại" style="edgeLabel;html=1;align=center;verticalAlign=middle;resizable=0;points=[];" vertex="1" connectable="0" parent="PJhLAQzegtzsBgXp3Pxs-76">
          <mxGeometry x="0.1887" y="1" relative="1" as="geometry">
            <mxPoint x="-8" y="-19" as="offset" />
          </mxGeometry>
        </mxCell>
        <mxCell id="PJhLAQzegtzsBgXp3Pxs-78" value="Kết quả" style="html=1;verticalAlign=bottom;endArrow=open;dashed=1;endSize=8;curved=0;rounded=0;exitX=0.5;exitY=1;exitDx=0;exitDy=0;exitPerimeter=0;" edge="1" parent="1" source="PJhLAQzegtzsBgXp3Pxs-75" target="PJhLAQzegtzsBgXp3Pxs-61">
          <mxGeometry relative="1" as="geometry">
            <mxPoint x="-2450" y="160" as="sourcePoint" />
            <mxPoint x="-2530" y="160" as="targetPoint" />
          </mxGeometry>
        </mxCell>
        <mxCell id="PJhLAQzegtzsBgXp3Pxs-79" value="Thông báo thành công" style="html=1;verticalAlign=bottom;endArrow=open;dashed=1;endSize=8;rounded=0;" edge="1" parent="1" source="PJhLAQzegtzsBgXp3Pxs-57" target="PJhLAQzegtzsBgXp3Pxs-55">
          <mxGeometry x="0.002" relative="1" as="geometry">
            <mxPoint x="-2915" y="520" as="sourcePoint" />
            <mxPoint x="-3080.189655172414" y="520" as="targetPoint" />
            <Array as="points">
              <mxPoint x="-2980" y="450" />
            </Array>
            <mxPoint as="offset" />
          </mxGeometry>
        </mxCell>
        <mxCell id="PJhLAQzegtzsBgXp3Pxs-80" value="&lt;b style=&quot;border-color: var(--border-color); color: rgb(0, 0, 0); font-family: Helvetica; font-size: 12px; font-style: normal; font-variant-ligatures: normal; font-variant-caps: normal; letter-spacing: normal; orphans: 2; text-align: center; text-indent: 0px; text-transform: none; widows: 2; word-spacing: 0px; -webkit-text-stroke-width: 0px; background-color: rgb(251, 251, 251); text-decoration-thickness: initial; text-decoration-style: initial; text-decoration-color: initial;&quot;&gt;&lt;font style=&quot;border-color: var(--border-color); font-size: 18px;&quot;&gt;UPDATE ITEM/CATEGORY&lt;/font&gt;&lt;/b&gt;" style="text;whiteSpace=wrap;html=1;" vertex="1" parent="1">
          <mxGeometry x="-3270" y="5" width="300" height="50" as="geometry" />
        </mxCell>
        <mxCell id="PJhLAQzegtzsBgXp3Pxs-88" value="Kết quả" style="html=1;verticalAlign=bottom;endArrow=open;dashed=1;endSize=8;curved=0;rounded=0;" edge="1" parent="1" target="PJhLAQzegtzsBgXp3Pxs-82" source="PJhLAQzegtzsBgXp3Pxs-93">
          <mxGeometry relative="1" as="geometry">
            <mxPoint x="-2570" y="500" as="sourcePoint" />
            <mxPoint x="-2490" y="300" as="targetPoint" />
          </mxGeometry>
        </mxCell>
        <mxCell id="PJhLAQzegtzsBgXp3Pxs-87" value="Cập nhật thất bại" style="html=1;verticalAlign=bottom;endArrow=open;dashed=1;endSize=8;rounded=0;" edge="1" parent="1" source="PJhLAQzegtzsBgXp3Pxs-82">
          <mxGeometry relative="1" as="geometry">
            <mxPoint x="-2730" y="540" as="sourcePoint" />
            <mxPoint x="-2915" y="520" as="targetPoint" />
            <Array as="points">
              <mxPoint x="-2790" y="520" />
            </Array>
          </mxGeometry>
        </mxCell>
        <mxCell id="PJhLAQzegtzsBgXp3Pxs-86" value="Cập nhật thành công" style="html=1;verticalAlign=bottom;endArrow=open;dashed=1;endSize=8;rounded=0;" edge="1" parent="1" source="PJhLAQzegtzsBgXp3Pxs-82">
          <mxGeometry relative="1" as="geometry">
            <mxPoint x="-2725" y="640" as="sourcePoint" />
            <mxPoint x="-2915" y="590" as="targetPoint" />
            <Array as="points">
              <mxPoint x="-2800" y="590" />
            </Array>
            <mxPoint as="offset" />
          </mxGeometry>
        </mxCell>
        <mxCell id="PJhLAQzegtzsBgXp3Pxs-85" value="Thông báo lỗi" style="html=1;verticalAlign=bottom;endArrow=open;dashed=1;endSize=8;rounded=0;" edge="1" parent="1" target="PJhLAQzegtzsBgXp3Pxs-55">
          <mxGeometry relative="1" as="geometry">
            <mxPoint x="-2925" y="540" as="sourcePoint" />
            <mxPoint x="-3050" y="540" as="targetPoint" />
            <Array as="points">
              <mxPoint x="-2970" y="540" />
            </Array>
          </mxGeometry>
        </mxCell>
        <mxCell id="PJhLAQzegtzsBgXp3Pxs-89" value="Thông báo thành công" style="html=1;verticalAlign=bottom;endArrow=open;dashed=1;endSize=8;rounded=0;" edge="1" parent="1" target="PJhLAQzegtzsBgXp3Pxs-55">
          <mxGeometry x="0.002" relative="1" as="geometry">
            <mxPoint x="-2925" y="610" as="sourcePoint" />
            <mxPoint x="-3050" y="610" as="targetPoint" />
            <Array as="points">
              <mxPoint x="-2940" y="610" />
            </Array>
            <mxPoint as="offset" />
          </mxGeometry>
        </mxCell>
        <mxCell id="PJhLAQzegtzsBgXp3Pxs-96" value="&amp;nbsp;" style="shape=umlLifeline;perimeter=lifelinePerimeter;whiteSpace=wrap;html=1;container=1;dropTarget=0;collapsible=0;recursiveResize=0;outlineConnect=0;portConstraint=eastwest;newEdgeStyle={&quot;curved&quot;:0,&quot;rounded&quot;:0};participant=umlActor;" vertex="1" parent="1">
          <mxGeometry x="-3090" y="800" width="20" height="590" as="geometry" />
        </mxCell>
        <mxCell id="PJhLAQzegtzsBgXp3Pxs-97" value="Giao diện" style="shape=umlLifeline;perimeter=lifelinePerimeter;whiteSpace=wrap;html=1;container=1;dropTarget=0;collapsible=0;recursiveResize=0;outlineConnect=0;portConstraint=eastwest;newEdgeStyle={&quot;curved&quot;:0,&quot;rounded&quot;:0};" vertex="1" parent="1">
          <mxGeometry x="-2950" y="800" width="80" height="590" as="geometry" />
        </mxCell>
        <mxCell id="PJhLAQzegtzsBgXp3Pxs-98" value="" style="html=1;points=[[0,0,0,0,5],[0,1,0,0,-5],[1,0,0,0,5],[1,1,0,0,-5]];perimeter=orthogonalPerimeter;outlineConnect=0;targetShapes=umlLifeline;portConstraint=eastwest;newEdgeStyle={&quot;curved&quot;:0,&quot;rounded&quot;:0};" vertex="1" parent="PJhLAQzegtzsBgXp3Pxs-97">
          <mxGeometry x="35" y="80" width="10" height="460" as="geometry" />
        </mxCell>
        <mxCell id="PJhLAQzegtzsBgXp3Pxs-100" value="Vật tư/loại vật tư&lt;br&gt;cần huỷ" style="html=1;verticalAlign=bottom;startArrow=none;endArrow=block;startSize=8;rounded=0;startFill=0;strokeColor=default;" edge="1" parent="1" source="PJhLAQzegtzsBgXp3Pxs-96" target="PJhLAQzegtzsBgXp3Pxs-98">
          <mxGeometry x="0.002" relative="1" as="geometry">
            <mxPoint x="-3020.189655172414" y="880" as="sourcePoint" />
            <mxPoint x="-2885" y="880" as="targetPoint" />
            <Array as="points">
              <mxPoint x="-2980" y="880" />
            </Array>
            <mxPoint as="offset" />
          </mxGeometry>
        </mxCell>
        <mxCell id="PJhLAQzegtzsBgXp3Pxs-101" value="Hệ thống" style="shape=umlLifeline;perimeter=lifelinePerimeter;whiteSpace=wrap;html=1;container=1;dropTarget=0;collapsible=0;recursiveResize=0;outlineConnect=0;portConstraint=eastwest;newEdgeStyle={&quot;curved&quot;:0,&quot;rounded&quot;:0};" vertex="1" parent="1">
          <mxGeometry x="-2790" y="800" width="80" height="590" as="geometry" />
        </mxCell>
        <mxCell id="PJhLAQzegtzsBgXp3Pxs-102" value="" style="html=1;points=[[0,0,0,0,5],[0,1,0,0,-5],[1,0,0,0,5],[1,1,0,0,-5]];perimeter=orthogonalPerimeter;outlineConnect=0;targetShapes=umlLifeline;portConstraint=eastwest;newEdgeStyle={&quot;curved&quot;:0,&quot;rounded&quot;:0};" vertex="1" parent="PJhLAQzegtzsBgXp3Pxs-101">
          <mxGeometry x="35" y="120" width="10" height="120" as="geometry" />
        </mxCell>
        <mxCell id="PJhLAQzegtzsBgXp3Pxs-103" value="" style="html=1;points=[[0,0,0,0,5],[0,1,0,0,-5],[1,0,0,0,5],[1,1,0,0,-5]];perimeter=orthogonalPerimeter;outlineConnect=0;targetShapes=umlLifeline;portConstraint=eastwest;newEdgeStyle={&quot;curved&quot;:0,&quot;rounded&quot;:0};" vertex="1" parent="PJhLAQzegtzsBgXp3Pxs-101">
          <mxGeometry x="35" y="280" width="10" height="90" as="geometry" />
        </mxCell>
        <mxCell id="PJhLAQzegtzsBgXp3Pxs-104" value="alt" style="shape=umlFrame;whiteSpace=wrap;html=1;pointerEvents=0;recursiveResize=0;container=1;collapsible=0;width=40;height=25;" vertex="1" parent="1">
          <mxGeometry x="-3260" y="940" width="740" height="480" as="geometry" />
        </mxCell>
        <mxCell id="PJhLAQzegtzsBgXp3Pxs-105" value="Không hợp lệ" style="text;html=1;fontSize=11;" vertex="1" parent="PJhLAQzegtzsBgXp3Pxs-104">
          <mxGeometry width="100" height="20" relative="1" as="geometry">
            <mxPoint x="20" y="30" as="offset" />
          </mxGeometry>
        </mxCell>
        <mxCell id="PJhLAQzegtzsBgXp3Pxs-106" value="Hợp lệ" style="line;strokeWidth=1;dashed=1;labelPosition=center;verticalLabelPosition=bottom;align=left;verticalAlign=top;spacingLeft=20;spacingTop=15;html=1;whiteSpace=wrap;" vertex="1" parent="PJhLAQzegtzsBgXp3Pxs-104">
          <mxGeometry y="55" width="740" height="10" as="geometry" />
        </mxCell>
        <mxCell id="PJhLAQzegtzsBgXp3Pxs-107" value="alt" style="shape=umlFrame;whiteSpace=wrap;html=1;pointerEvents=0;recursiveResize=0;container=1;collapsible=0;width=40;height=25;" vertex="1" parent="PJhLAQzegtzsBgXp3Pxs-104">
          <mxGeometry x="50" y="120" width="670" height="340" as="geometry" />
        </mxCell>
        <mxCell id="PJhLAQzegtzsBgXp3Pxs-108" value="Không tồn tại" style="text;html=1;fontSize=11;" vertex="1" parent="PJhLAQzegtzsBgXp3Pxs-107">
          <mxGeometry width="100" height="20" relative="1" as="geometry">
            <mxPoint x="20" y="30" as="offset" />
          </mxGeometry>
        </mxCell>
        <mxCell id="PJhLAQzegtzsBgXp3Pxs-109" value="Tồn tại" style="line;strokeWidth=1;dashed=1;labelPosition=center;verticalLabelPosition=bottom;align=left;verticalAlign=top;spacingLeft=20;spacingTop=15;html=1;whiteSpace=wrap;" vertex="1" parent="PJhLAQzegtzsBgXp3Pxs-107">
          <mxGeometry y="75" width="670" height="10" as="geometry" />
        </mxCell>
        <mxCell id="PJhLAQzegtzsBgXp3Pxs-111" value="alt" style="shape=umlFrame;whiteSpace=wrap;html=1;pointerEvents=0;recursiveResize=0;container=1;collapsible=0;width=40;height=25;" vertex="1" parent="PJhLAQzegtzsBgXp3Pxs-107">
          <mxGeometry x="20" y="150" width="630" height="150" as="geometry" />
        </mxCell>
        <mxCell id="PJhLAQzegtzsBgXp3Pxs-112" value="Không thành công" style="text;html=1;fontSize=11;" vertex="1" parent="PJhLAQzegtzsBgXp3Pxs-111">
          <mxGeometry width="100" height="20" relative="1" as="geometry">
            <mxPoint x="20" y="30" as="offset" />
          </mxGeometry>
        </mxCell>
        <mxCell id="PJhLAQzegtzsBgXp3Pxs-113" value="Thành công" style="line;strokeWidth=1;dashed=1;labelPosition=center;verticalLabelPosition=bottom;align=left;verticalAlign=top;spacingLeft=20;spacingTop=15;html=1;whiteSpace=wrap;" vertex="1" parent="PJhLAQzegtzsBgXp3Pxs-111">
          <mxGeometry y="75" width="630" height="10" as="geometry" />
        </mxCell>
        <mxCell id="PJhLAQzegtzsBgXp3Pxs-110" value="" style="html=1;points=[[0,0,0,0,5],[0,1,0,0,-5],[1,0,0,0,5],[1,1,0,0,-5]];perimeter=orthogonalPerimeter;outlineConnect=0;targetShapes=umlLifeline;portConstraint=eastwest;newEdgeStyle={&quot;curved&quot;:0,&quot;rounded&quot;:0};" vertex="1" parent="PJhLAQzegtzsBgXp3Pxs-111">
          <mxGeometry x="435" y="29" width="10" height="92" as="geometry" />
        </mxCell>
        <mxCell id="PJhLAQzegtzsBgXp3Pxs-114" value="Kiểm tra dữ liệu hợp lệ" style="html=1;verticalAlign=bottom;endArrow=block;curved=0;rounded=0;" edge="1" parent="1" source="PJhLAQzegtzsBgXp3Pxs-98" target="PJhLAQzegtzsBgXp3Pxs-102">
          <mxGeometry width="80" relative="1" as="geometry">
            <mxPoint x="-2870" y="920" as="sourcePoint" />
            <mxPoint x="-2790" y="920" as="targetPoint" />
            <Array as="points">
              <mxPoint x="-2860" y="920" />
            </Array>
          </mxGeometry>
        </mxCell>
        <mxCell id="PJhLAQzegtzsBgXp3Pxs-115" value="Thông báo lỗi" style="html=1;verticalAlign=bottom;endArrow=open;dashed=1;endSize=8;rounded=0;" edge="1" parent="1" source="PJhLAQzegtzsBgXp3Pxs-98" target="PJhLAQzegtzsBgXp3Pxs-96">
          <mxGeometry x="0.003" relative="1" as="geometry">
            <mxPoint x="-2910" y="960" as="sourcePoint" />
            <mxPoint x="-2895" y="970" as="targetPoint" />
            <Array as="points">
              <mxPoint x="-3000" y="980" />
            </Array>
            <mxPoint as="offset" />
          </mxGeometry>
        </mxCell>
        <mxCell id="PJhLAQzegtzsBgXp3Pxs-116" value="Thông tin nhập vào&lt;br style=&quot;border-color: var(--border-color);&quot;&gt;không hợp lệ" style="html=1;verticalAlign=bottom;endArrow=open;dashed=1;endSize=8;rounded=0;" edge="1" parent="1" source="PJhLAQzegtzsBgXp3Pxs-102" target="PJhLAQzegtzsBgXp3Pxs-98">
          <mxGeometry relative="1" as="geometry">
            <mxPoint x="-2775" y="1040" as="sourcePoint" />
            <mxPoint x="-2925" y="1015" as="targetPoint" />
            <Array as="points">
              <mxPoint x="-2830" y="970" />
            </Array>
          </mxGeometry>
        </mxCell>
        <mxCell id="PJhLAQzegtzsBgXp3Pxs-117" value="Thông báo lỗi" style="html=1;verticalAlign=bottom;endArrow=open;dashed=1;endSize=8;rounded=0;" edge="1" parent="1" source="PJhLAQzegtzsBgXp3Pxs-98" target="PJhLAQzegtzsBgXp3Pxs-96">
          <mxGeometry relative="1" as="geometry">
            <mxPoint x="-2915" y="1150" as="sourcePoint" />
            <mxPoint x="-3080.189655172414" y="1150" as="targetPoint" />
            <Array as="points">
              <mxPoint x="-3000" y="1120" />
            </Array>
          </mxGeometry>
        </mxCell>
        <mxCell id="PJhLAQzegtzsBgXp3Pxs-118" value="Ẩn vật tư" style="html=1;verticalAlign=bottom;endArrow=open;dashed=1;endSize=8;rounded=0;" edge="1" parent="1" source="PJhLAQzegtzsBgXp3Pxs-103" target="PJhLAQzegtzsBgXp3Pxs-120">
          <mxGeometry relative="1" as="geometry">
            <mxPoint x="-2755" y="1220" as="sourcePoint" />
            <mxPoint x="-2905" y="1220" as="targetPoint" />
            <Array as="points">
              <mxPoint x="-2670" y="1170" />
            </Array>
            <mxPoint as="offset" />
          </mxGeometry>
        </mxCell>
        <mxCell id="PJhLAQzegtzsBgXp3Pxs-119" value="Không tồn tại" style="html=1;verticalAlign=bottom;endArrow=open;dashed=1;endSize=8;rounded=0;" edge="1" parent="1" source="PJhLAQzegtzsBgXp3Pxs-103" target="PJhLAQzegtzsBgXp3Pxs-98">
          <mxGeometry relative="1" as="geometry">
            <mxPoint x="-2760" y="1120" as="sourcePoint" />
            <mxPoint x="-2905" y="1140" as="targetPoint" />
            <Array as="points">
              <mxPoint x="-2820" y="1100" />
            </Array>
          </mxGeometry>
        </mxCell>
        <mxCell id="PJhLAQzegtzsBgXp3Pxs-120" value="CSDL" style="shape=umlLifeline;perimeter=lifelinePerimeter;whiteSpace=wrap;html=1;container=1;dropTarget=0;collapsible=0;recursiveResize=0;outlineConnect=0;portConstraint=eastwest;newEdgeStyle={&quot;curved&quot;:0,&quot;rounded&quot;:0};" vertex="1" parent="1">
          <mxGeometry x="-2640" y="800" width="80" height="590" as="geometry" />
        </mxCell>
        <mxCell id="PJhLAQzegtzsBgXp3Pxs-121" value="" style="html=1;points=[[0,0,0,0,5],[0,1,0,0,-5],[1,0,0,0,5],[1,1,0,0,-5]];perimeter=orthogonalPerimeter;outlineConnect=0;targetShapes=umlLifeline;portConstraint=eastwest;newEdgeStyle={&quot;curved&quot;:0,&quot;rounded&quot;:0};" vertex="1" parent="PJhLAQzegtzsBgXp3Pxs-120">
          <mxGeometry x="35" y="240" width="10" height="40" as="geometry" />
        </mxCell>
        <mxCell id="PJhLAQzegtzsBgXp3Pxs-122" value="" style="html=1;points=[[0,0,0,0,5],[0,1,0,0,-5],[1,0,0,0,5],[1,1,0,0,-5]];perimeter=orthogonalPerimeter;outlineConnect=0;targetShapes=umlLifeline;portConstraint=eastwest;newEdgeStyle={&quot;curved&quot;:0,&quot;rounded&quot;:0};" vertex="1" parent="PJhLAQzegtzsBgXp3Pxs-120">
          <mxGeometry x="40" y="370" width="10" height="70" as="geometry" />
        </mxCell>
        <mxCell id="PJhLAQzegtzsBgXp3Pxs-123" value="" style="edgeStyle=orthogonalEdgeStyle;rounded=0;orthogonalLoop=1;jettySize=auto;html=1;curved=0;" edge="1" parent="1" source="PJhLAQzegtzsBgXp3Pxs-102" target="PJhLAQzegtzsBgXp3Pxs-121">
          <mxGeometry relative="1" as="geometry">
            <Array as="points">
              <mxPoint x="-2680" y="1040" />
              <mxPoint x="-2680" y="1040" />
            </Array>
          </mxGeometry>
        </mxCell>
        <mxCell id="PJhLAQzegtzsBgXp3Pxs-124" value="Kiểm tra sự tồn tại" style="edgeLabel;html=1;align=center;verticalAlign=middle;resizable=0;points=[];" vertex="1" connectable="0" parent="PJhLAQzegtzsBgXp3Pxs-123">
          <mxGeometry x="0.1887" y="1" relative="1" as="geometry">
            <mxPoint x="-8" y="-19" as="offset" />
          </mxGeometry>
        </mxCell>
        <mxCell id="PJhLAQzegtzsBgXp3Pxs-125" value="Kết quả" style="html=1;verticalAlign=bottom;endArrow=open;dashed=1;endSize=8;curved=0;rounded=0;exitX=0.5;exitY=1;exitDx=0;exitDy=0;exitPerimeter=0;" edge="1" parent="1" source="PJhLAQzegtzsBgXp3Pxs-121" target="PJhLAQzegtzsBgXp3Pxs-103">
          <mxGeometry relative="1" as="geometry">
            <mxPoint x="-2440" y="880" as="sourcePoint" />
            <mxPoint x="-2520" y="880" as="targetPoint" />
          </mxGeometry>
        </mxCell>
        <mxCell id="PJhLAQzegtzsBgXp3Pxs-126" value="Thông báo thành công" style="html=1;verticalAlign=bottom;endArrow=open;dashed=1;endSize=8;rounded=0;" edge="1" parent="1" source="PJhLAQzegtzsBgXp3Pxs-98" target="PJhLAQzegtzsBgXp3Pxs-96">
          <mxGeometry x="0.002" relative="1" as="geometry">
            <mxPoint x="-2905" y="1240" as="sourcePoint" />
            <mxPoint x="-3070.189655172414" y="1240" as="targetPoint" />
            <Array as="points">
              <mxPoint x="-2970" y="1170" />
            </Array>
            <mxPoint as="offset" />
          </mxGeometry>
        </mxCell>
        <mxCell id="PJhLAQzegtzsBgXp3Pxs-127" value="&lt;b style=&quot;border-color: var(--border-color); color: rgb(0, 0, 0); font-family: Helvetica; font-size: 12px; font-style: normal; font-variant-ligatures: normal; font-variant-caps: normal; letter-spacing: normal; orphans: 2; text-align: center; text-indent: 0px; text-transform: none; widows: 2; word-spacing: 0px; -webkit-text-stroke-width: 0px; background-color: rgb(251, 251, 251); text-decoration-thickness: initial; text-decoration-style: initial; text-decoration-color: initial;&quot;&gt;&lt;font style=&quot;border-color: var(--border-color); font-size: 18px;&quot;&gt;REMOVE ITEM/CATEGORY&lt;/font&gt;&lt;/b&gt;" style="text;whiteSpace=wrap;html=1;" vertex="1" parent="1">
          <mxGeometry x="-3290" y="740" width="250" height="30" as="geometry" />
        </mxCell>
        <mxCell id="PJhLAQzegtzsBgXp3Pxs-128" value="Kết quả" style="html=1;verticalAlign=bottom;endArrow=open;dashed=1;endSize=8;curved=0;rounded=0;" edge="1" parent="1" source="PJhLAQzegtzsBgXp3Pxs-122" target="PJhLAQzegtzsBgXp3Pxs-110">
          <mxGeometry relative="1" as="geometry">
            <mxPoint x="-2560" y="1220" as="sourcePoint" />
            <mxPoint x="-2480" y="1020" as="targetPoint" />
          </mxGeometry>
        </mxCell>
        <mxCell id="PJhLAQzegtzsBgXp3Pxs-129" value="Huỷ thất bại" style="html=1;verticalAlign=bottom;endArrow=open;dashed=1;endSize=8;rounded=0;" edge="1" parent="1" source="PJhLAQzegtzsBgXp3Pxs-110">
          <mxGeometry relative="1" as="geometry">
            <mxPoint x="-2720" y="1260" as="sourcePoint" />
            <mxPoint x="-2905" y="1240" as="targetPoint" />
            <Array as="points">
              <mxPoint x="-2780" y="1240" />
            </Array>
          </mxGeometry>
        </mxCell>
        <mxCell id="PJhLAQzegtzsBgXp3Pxs-130" value="Ản thành công" style="html=1;verticalAlign=bottom;endArrow=open;dashed=1;endSize=8;rounded=0;" edge="1" parent="1" source="PJhLAQzegtzsBgXp3Pxs-110">
          <mxGeometry relative="1" as="geometry">
            <mxPoint x="-2715" y="1360" as="sourcePoint" />
            <mxPoint x="-2905" y="1310" as="targetPoint" />
            <Array as="points">
              <mxPoint x="-2790" y="1310" />
            </Array>
            <mxPoint as="offset" />
          </mxGeometry>
        </mxCell>
        <mxCell id="PJhLAQzegtzsBgXp3Pxs-131" value="Thông báo lỗi" style="html=1;verticalAlign=bottom;endArrow=open;dashed=1;endSize=8;rounded=0;" edge="1" parent="1" target="PJhLAQzegtzsBgXp3Pxs-96">
          <mxGeometry relative="1" as="geometry">
            <mxPoint x="-2915" y="1260" as="sourcePoint" />
            <mxPoint x="-3040" y="1260" as="targetPoint" />
            <Array as="points">
              <mxPoint x="-2960" y="1260" />
            </Array>
          </mxGeometry>
        </mxCell>
        <mxCell id="PJhLAQzegtzsBgXp3Pxs-132" value="Thông báo thành công" style="html=1;verticalAlign=bottom;endArrow=open;dashed=1;endSize=8;rounded=0;" edge="1" parent="1" target="PJhLAQzegtzsBgXp3Pxs-96">
          <mxGeometry x="0.002" relative="1" as="geometry">
            <mxPoint x="-2915" y="1330" as="sourcePoint" />
            <mxPoint x="-3040" y="1330" as="targetPoint" />
            <Array as="points">
              <mxPoint x="-2930" y="1330" />
            </Array>
            <mxPoint as="offset" />
          </mxGeometry>
        </mxCell>
        <mxCell id="PJhLAQzegtzsBgXp3Pxs-164" value="&lt;div style=&quot;text-align: center;&quot;&gt;&lt;span style=&quot;background-color: initial; font-size: 18px;&quot;&gt;&lt;b&gt;CREATE ORDER&lt;/b&gt;&lt;/span&gt;&lt;/div&gt;" style="text;whiteSpace=wrap;html=1;" vertex="1" parent="1">
          <mxGeometry x="-2430" y="730" width="250" height="30" as="geometry" />
        </mxCell>
        <mxCell id="PJhLAQzegtzsBgXp3Pxs-195" value="&amp;nbsp;" style="shape=umlLifeline;perimeter=lifelinePerimeter;whiteSpace=wrap;html=1;container=1;dropTarget=0;collapsible=0;recursiveResize=0;outlineConnect=0;portConstraint=eastwest;newEdgeStyle={&quot;curved&quot;:0,&quot;rounded&quot;:0};participant=umlActor;" vertex="1" parent="1">
          <mxGeometry x="-2270" y="800" width="20" height="430" as="geometry" />
        </mxCell>
        <mxCell id="PJhLAQzegtzsBgXp3Pxs-196" value="Giao diện" style="shape=umlLifeline;perimeter=lifelinePerimeter;whiteSpace=wrap;html=1;container=1;dropTarget=0;collapsible=0;recursiveResize=0;outlineConnect=0;portConstraint=eastwest;newEdgeStyle={&quot;curved&quot;:0,&quot;rounded&quot;:0};" vertex="1" parent="1">
          <mxGeometry x="-2130" y="800" width="80" height="430" as="geometry" />
        </mxCell>
        <mxCell id="PJhLAQzegtzsBgXp3Pxs-197" value="" style="html=1;points=[[0,0,0,0,5],[0,1,0,0,-5],[1,0,0,0,5],[1,1,0,0,-5]];perimeter=orthogonalPerimeter;outlineConnect=0;targetShapes=umlLifeline;portConstraint=eastwest;newEdgeStyle={&quot;curved&quot;:0,&quot;rounded&quot;:0};" vertex="1" parent="PJhLAQzegtzsBgXp3Pxs-196">
          <mxGeometry x="35" y="80" width="10" height="310" as="geometry" />
        </mxCell>
        <mxCell id="PJhLAQzegtzsBgXp3Pxs-198" value="Thông tin&amp;nbsp;&lt;br&gt;đơn đặt hàng" style="html=1;verticalAlign=bottom;startArrow=none;endArrow=block;startSize=8;rounded=0;startFill=0;strokeColor=default;" edge="1" parent="1" source="PJhLAQzegtzsBgXp3Pxs-195" target="PJhLAQzegtzsBgXp3Pxs-197">
          <mxGeometry x="0.002" relative="1" as="geometry">
            <mxPoint x="-2200.189655172414" y="880" as="sourcePoint" />
            <mxPoint x="-2065" y="880" as="targetPoint" />
            <Array as="points">
              <mxPoint x="-2160" y="880" />
            </Array>
            <mxPoint as="offset" />
          </mxGeometry>
        </mxCell>
        <mxCell id="PJhLAQzegtzsBgXp3Pxs-199" value="Hệ thống" style="shape=umlLifeline;perimeter=lifelinePerimeter;whiteSpace=wrap;html=1;container=1;dropTarget=0;collapsible=0;recursiveResize=0;outlineConnect=0;portConstraint=eastwest;newEdgeStyle={&quot;curved&quot;:0,&quot;rounded&quot;:0};" vertex="1" parent="1">
          <mxGeometry x="-1970" y="800" width="80" height="430" as="geometry" />
        </mxCell>
        <mxCell id="PJhLAQzegtzsBgXp3Pxs-200" value="" style="html=1;points=[[0,0,0,0,5],[0,1,0,0,-5],[1,0,0,0,5],[1,1,0,0,-5]];perimeter=orthogonalPerimeter;outlineConnect=0;targetShapes=umlLifeline;portConstraint=eastwest;newEdgeStyle={&quot;curved&quot;:0,&quot;rounded&quot;:0};" vertex="1" parent="PJhLAQzegtzsBgXp3Pxs-199">
          <mxGeometry x="35" y="120" width="10" height="120" as="geometry" />
        </mxCell>
        <mxCell id="PJhLAQzegtzsBgXp3Pxs-201" value="" style="html=1;points=[[0,0,0,0,5],[0,1,0,0,-5],[1,0,0,0,5],[1,1,0,0,-5]];perimeter=orthogonalPerimeter;outlineConnect=0;targetShapes=umlLifeline;portConstraint=eastwest;newEdgeStyle={&quot;curved&quot;:0,&quot;rounded&quot;:0};" vertex="1" parent="PJhLAQzegtzsBgXp3Pxs-199">
          <mxGeometry x="35" y="280" width="10" height="90" as="geometry" />
        </mxCell>
        <mxCell id="PJhLAQzegtzsBgXp3Pxs-202" value="alt" style="shape=umlFrame;whiteSpace=wrap;html=1;pointerEvents=0;recursiveResize=0;container=1;collapsible=0;width=40;height=25;" vertex="1" parent="1">
          <mxGeometry x="-2400" y="940" width="690" height="300" as="geometry" />
        </mxCell>
        <mxCell id="PJhLAQzegtzsBgXp3Pxs-203" value="Không hợp lệ" style="text;html=1;fontSize=11;" vertex="1" parent="PJhLAQzegtzsBgXp3Pxs-202">
          <mxGeometry width="100" height="20" relative="1" as="geometry">
            <mxPoint x="20" y="30" as="offset" />
          </mxGeometry>
        </mxCell>
        <mxCell id="PJhLAQzegtzsBgXp3Pxs-204" value="Hợp lệ" style="line;strokeWidth=1;dashed=1;labelPosition=center;verticalLabelPosition=bottom;align=left;verticalAlign=top;spacingLeft=20;spacingTop=15;html=1;whiteSpace=wrap;" vertex="1" parent="PJhLAQzegtzsBgXp3Pxs-202">
          <mxGeometry y="55" width="690" height="10" as="geometry" />
        </mxCell>
        <mxCell id="PJhLAQzegtzsBgXp3Pxs-205" value="alt" style="shape=umlFrame;whiteSpace=wrap;html=1;pointerEvents=0;recursiveResize=0;container=1;collapsible=0;width=40;height=25;" vertex="1" parent="PJhLAQzegtzsBgXp3Pxs-202">
          <mxGeometry x="20" y="120" width="630" height="150" as="geometry" />
        </mxCell>
        <mxCell id="PJhLAQzegtzsBgXp3Pxs-206" value="Không thành công" style="text;html=1;fontSize=11;" vertex="1" parent="PJhLAQzegtzsBgXp3Pxs-205">
          <mxGeometry width="100" height="20" relative="1" as="geometry">
            <mxPoint x="20" y="30" as="offset" />
          </mxGeometry>
        </mxCell>
        <mxCell id="PJhLAQzegtzsBgXp3Pxs-207" value="Thành công" style="line;strokeWidth=1;dashed=1;labelPosition=center;verticalLabelPosition=bottom;align=left;verticalAlign=top;spacingLeft=20;spacingTop=15;html=1;whiteSpace=wrap;" vertex="1" parent="PJhLAQzegtzsBgXp3Pxs-205">
          <mxGeometry y="75" width="630" height="10" as="geometry" />
        </mxCell>
        <mxCell id="PJhLAQzegtzsBgXp3Pxs-208" value="Kiểm tra dữ liệu hợp lệ" style="html=1;verticalAlign=bottom;endArrow=block;curved=0;rounded=0;" edge="1" parent="1" source="PJhLAQzegtzsBgXp3Pxs-197" target="PJhLAQzegtzsBgXp3Pxs-200">
          <mxGeometry width="80" relative="1" as="geometry">
            <mxPoint x="-2050" y="920" as="sourcePoint" />
            <mxPoint x="-1970" y="920" as="targetPoint" />
            <Array as="points">
              <mxPoint x="-2040" y="920" />
            </Array>
          </mxGeometry>
        </mxCell>
        <mxCell id="PJhLAQzegtzsBgXp3Pxs-209" value="Thông báo lỗi" style="html=1;verticalAlign=bottom;endArrow=open;dashed=1;endSize=8;rounded=0;" edge="1" parent="1" source="PJhLAQzegtzsBgXp3Pxs-197" target="PJhLAQzegtzsBgXp3Pxs-195">
          <mxGeometry x="0.003" relative="1" as="geometry">
            <mxPoint x="-2090" y="960" as="sourcePoint" />
            <mxPoint x="-2075" y="970" as="targetPoint" />
            <Array as="points">
              <mxPoint x="-2180" y="980" />
            </Array>
            <mxPoint as="offset" />
          </mxGeometry>
        </mxCell>
        <mxCell id="PJhLAQzegtzsBgXp3Pxs-210" value="Thông tin nhập vào&lt;br style=&quot;border-color: var(--border-color);&quot;&gt;không hợp lệ" style="html=1;verticalAlign=bottom;endArrow=open;dashed=1;endSize=8;rounded=0;" edge="1" parent="1" source="PJhLAQzegtzsBgXp3Pxs-200" target="PJhLAQzegtzsBgXp3Pxs-197">
          <mxGeometry relative="1" as="geometry">
            <mxPoint x="-1955" y="1040" as="sourcePoint" />
            <mxPoint x="-2105" y="1015" as="targetPoint" />
            <Array as="points">
              <mxPoint x="-2010" y="970" />
            </Array>
          </mxGeometry>
        </mxCell>
        <mxCell id="PJhLAQzegtzsBgXp3Pxs-211" value="Thông báo lỗi" style="html=1;verticalAlign=bottom;endArrow=open;dashed=1;endSize=8;rounded=0;" edge="1" parent="1" source="PJhLAQzegtzsBgXp3Pxs-197" target="PJhLAQzegtzsBgXp3Pxs-195">
          <mxGeometry relative="1" as="geometry">
            <mxPoint x="-2095" y="1150" as="sourcePoint" />
            <mxPoint x="-2260.189655172414" y="1150" as="targetPoint" />
            <Array as="points">
              <mxPoint x="-2180" y="1120" />
            </Array>
          </mxGeometry>
        </mxCell>
        <mxCell id="PJhLAQzegtzsBgXp3Pxs-212" value="Thêm thành công" style="html=1;verticalAlign=bottom;endArrow=open;dashed=1;endSize=8;rounded=0;" edge="1" parent="1" source="PJhLAQzegtzsBgXp3Pxs-201" target="PJhLAQzegtzsBgXp3Pxs-197">
          <mxGeometry relative="1" as="geometry">
            <mxPoint x="-1935" y="1220" as="sourcePoint" />
            <mxPoint x="-2085" y="1220" as="targetPoint" />
            <Array as="points">
              <mxPoint x="-2010" y="1170" />
            </Array>
            <mxPoint as="offset" />
          </mxGeometry>
        </mxCell>
        <mxCell id="PJhLAQzegtzsBgXp3Pxs-213" value="Thêm thất bại" style="html=1;verticalAlign=bottom;endArrow=open;dashed=1;endSize=8;rounded=0;" edge="1" parent="1" source="PJhLAQzegtzsBgXp3Pxs-201" target="PJhLAQzegtzsBgXp3Pxs-197">
          <mxGeometry relative="1" as="geometry">
            <mxPoint x="-1940" y="1120" as="sourcePoint" />
            <mxPoint x="-2085" y="1140" as="targetPoint" />
            <Array as="points">
              <mxPoint x="-2000" y="1100" />
            </Array>
          </mxGeometry>
        </mxCell>
        <mxCell id="PJhLAQzegtzsBgXp3Pxs-214" value="CSDL" style="shape=umlLifeline;perimeter=lifelinePerimeter;whiteSpace=wrap;html=1;container=1;dropTarget=0;collapsible=0;recursiveResize=0;outlineConnect=0;portConstraint=eastwest;newEdgeStyle={&quot;curved&quot;:0,&quot;rounded&quot;:0};" vertex="1" parent="1">
          <mxGeometry x="-1820" y="800" width="80" height="430" as="geometry" />
        </mxCell>
        <mxCell id="PJhLAQzegtzsBgXp3Pxs-215" value="" style="html=1;points=[[0,0,0,0,5],[0,1,0,0,-5],[1,0,0,0,5],[1,1,0,0,-5]];perimeter=orthogonalPerimeter;outlineConnect=0;targetShapes=umlLifeline;portConstraint=eastwest;newEdgeStyle={&quot;curved&quot;:0,&quot;rounded&quot;:0};" vertex="1" parent="PJhLAQzegtzsBgXp3Pxs-214">
          <mxGeometry x="35" y="240" width="10" height="40" as="geometry" />
        </mxCell>
        <mxCell id="PJhLAQzegtzsBgXp3Pxs-216" value="" style="edgeStyle=orthogonalEdgeStyle;rounded=0;orthogonalLoop=1;jettySize=auto;html=1;curved=0;" edge="1" parent="1" source="PJhLAQzegtzsBgXp3Pxs-200" target="PJhLAQzegtzsBgXp3Pxs-215">
          <mxGeometry relative="1" as="geometry">
            <Array as="points">
              <mxPoint x="-1860" y="1040" />
              <mxPoint x="-1860" y="1040" />
            </Array>
          </mxGeometry>
        </mxCell>
        <mxCell id="PJhLAQzegtzsBgXp3Pxs-217" value="Thêm đơn đặt hàng" style="edgeLabel;html=1;align=center;verticalAlign=middle;resizable=0;points=[];" vertex="1" connectable="0" parent="PJhLAQzegtzsBgXp3Pxs-216">
          <mxGeometry x="0.1887" y="1" relative="1" as="geometry">
            <mxPoint x="-8" y="-19" as="offset" />
          </mxGeometry>
        </mxCell>
        <mxCell id="PJhLAQzegtzsBgXp3Pxs-218" value="Kết quả" style="html=1;verticalAlign=bottom;endArrow=open;dashed=1;endSize=8;curved=0;rounded=0;exitX=0.5;exitY=1;exitDx=0;exitDy=0;exitPerimeter=0;" edge="1" parent="1" source="PJhLAQzegtzsBgXp3Pxs-215" target="PJhLAQzegtzsBgXp3Pxs-201">
          <mxGeometry relative="1" as="geometry">
            <mxPoint x="-1620" y="880" as="sourcePoint" />
            <mxPoint x="-1700" y="880" as="targetPoint" />
          </mxGeometry>
        </mxCell>
        <mxCell id="PJhLAQzegtzsBgXp3Pxs-219" value="Thông báo thành công" style="html=1;verticalAlign=bottom;endArrow=open;dashed=1;endSize=8;rounded=0;" edge="1" parent="1" source="PJhLAQzegtzsBgXp3Pxs-197" target="PJhLAQzegtzsBgXp3Pxs-195">
          <mxGeometry x="0.002" relative="1" as="geometry">
            <mxPoint x="-2085" y="1240" as="sourcePoint" />
            <mxPoint x="-2250.189655172414" y="1240" as="targetPoint" />
            <Array as="points">
              <mxPoint x="-2150" y="1190" />
            </Array>
            <mxPoint as="offset" />
          </mxGeometry>
        </mxCell>
        <mxCell id="PJhLAQzegtzsBgXp3Pxs-220" value="&lt;div style=&quot;text-align: center;&quot;&gt;&lt;span style=&quot;background-color: initial; font-size: 18px;&quot;&gt;&lt;b&gt;CREATE TICKET&lt;/b&gt;&lt;/span&gt;&lt;/div&gt;" style="text;whiteSpace=wrap;html=1;" vertex="1" parent="1">
          <mxGeometry x="-1640" y="710" width="250" height="30" as="geometry" />
        </mxCell>
        <mxCell id="PJhLAQzegtzsBgXp3Pxs-221" value="&amp;nbsp;" style="shape=umlLifeline;perimeter=lifelinePerimeter;whiteSpace=wrap;html=1;container=1;dropTarget=0;collapsible=0;recursiveResize=0;outlineConnect=0;portConstraint=eastwest;newEdgeStyle={&quot;curved&quot;:0,&quot;rounded&quot;:0};participant=umlActor;" vertex="1" parent="1">
          <mxGeometry x="-1480" y="780" width="20" height="430" as="geometry" />
        </mxCell>
        <mxCell id="PJhLAQzegtzsBgXp3Pxs-222" value="Giao diện" style="shape=umlLifeline;perimeter=lifelinePerimeter;whiteSpace=wrap;html=1;container=1;dropTarget=0;collapsible=0;recursiveResize=0;outlineConnect=0;portConstraint=eastwest;newEdgeStyle={&quot;curved&quot;:0,&quot;rounded&quot;:0};" vertex="1" parent="1">
          <mxGeometry x="-1340" y="780" width="80" height="430" as="geometry" />
        </mxCell>
        <mxCell id="PJhLAQzegtzsBgXp3Pxs-223" value="" style="html=1;points=[[0,0,0,0,5],[0,1,0,0,-5],[1,0,0,0,5],[1,1,0,0,-5]];perimeter=orthogonalPerimeter;outlineConnect=0;targetShapes=umlLifeline;portConstraint=eastwest;newEdgeStyle={&quot;curved&quot;:0,&quot;rounded&quot;:0};" vertex="1" parent="PJhLAQzegtzsBgXp3Pxs-222">
          <mxGeometry x="35" y="80" width="10" height="310" as="geometry" />
        </mxCell>
        <mxCell id="PJhLAQzegtzsBgXp3Pxs-224" value="Thông tin&lt;br&gt;yêu cầu" style="html=1;verticalAlign=bottom;startArrow=none;endArrow=block;startSize=8;rounded=0;startFill=0;strokeColor=default;" edge="1" parent="1" source="PJhLAQzegtzsBgXp3Pxs-221" target="PJhLAQzegtzsBgXp3Pxs-223">
          <mxGeometry x="0.002" relative="1" as="geometry">
            <mxPoint x="-1410.189655172414" y="860" as="sourcePoint" />
            <mxPoint x="-1275" y="860" as="targetPoint" />
            <Array as="points">
              <mxPoint x="-1370" y="860" />
            </Array>
            <mxPoint as="offset" />
          </mxGeometry>
        </mxCell>
        <mxCell id="PJhLAQzegtzsBgXp3Pxs-225" value="Hệ thống" style="shape=umlLifeline;perimeter=lifelinePerimeter;whiteSpace=wrap;html=1;container=1;dropTarget=0;collapsible=0;recursiveResize=0;outlineConnect=0;portConstraint=eastwest;newEdgeStyle={&quot;curved&quot;:0,&quot;rounded&quot;:0};" vertex="1" parent="1">
          <mxGeometry x="-1180" y="780" width="80" height="430" as="geometry" />
        </mxCell>
        <mxCell id="PJhLAQzegtzsBgXp3Pxs-226" value="" style="html=1;points=[[0,0,0,0,5],[0,1,0,0,-5],[1,0,0,0,5],[1,1,0,0,-5]];perimeter=orthogonalPerimeter;outlineConnect=0;targetShapes=umlLifeline;portConstraint=eastwest;newEdgeStyle={&quot;curved&quot;:0,&quot;rounded&quot;:0};" vertex="1" parent="PJhLAQzegtzsBgXp3Pxs-225">
          <mxGeometry x="35" y="120" width="10" height="120" as="geometry" />
        </mxCell>
        <mxCell id="PJhLAQzegtzsBgXp3Pxs-227" value="" style="html=1;points=[[0,0,0,0,5],[0,1,0,0,-5],[1,0,0,0,5],[1,1,0,0,-5]];perimeter=orthogonalPerimeter;outlineConnect=0;targetShapes=umlLifeline;portConstraint=eastwest;newEdgeStyle={&quot;curved&quot;:0,&quot;rounded&quot;:0};" vertex="1" parent="PJhLAQzegtzsBgXp3Pxs-225">
          <mxGeometry x="35" y="280" width="10" height="90" as="geometry" />
        </mxCell>
        <mxCell id="PJhLAQzegtzsBgXp3Pxs-228" value="alt" style="shape=umlFrame;whiteSpace=wrap;html=1;pointerEvents=0;recursiveResize=0;container=1;collapsible=0;width=40;height=25;" vertex="1" parent="1">
          <mxGeometry x="-1610" y="920" width="690" height="300" as="geometry" />
        </mxCell>
        <mxCell id="PJhLAQzegtzsBgXp3Pxs-229" value="Không hợp lệ" style="text;html=1;fontSize=11;" vertex="1" parent="PJhLAQzegtzsBgXp3Pxs-228">
          <mxGeometry width="100" height="20" relative="1" as="geometry">
            <mxPoint x="20" y="30" as="offset" />
          </mxGeometry>
        </mxCell>
        <mxCell id="PJhLAQzegtzsBgXp3Pxs-230" value="Hợp lệ" style="line;strokeWidth=1;dashed=1;labelPosition=center;verticalLabelPosition=bottom;align=left;verticalAlign=top;spacingLeft=20;spacingTop=15;html=1;whiteSpace=wrap;" vertex="1" parent="PJhLAQzegtzsBgXp3Pxs-228">
          <mxGeometry y="55" width="690" height="10" as="geometry" />
        </mxCell>
        <mxCell id="PJhLAQzegtzsBgXp3Pxs-231" value="alt" style="shape=umlFrame;whiteSpace=wrap;html=1;pointerEvents=0;recursiveResize=0;container=1;collapsible=0;width=40;height=25;" vertex="1" parent="PJhLAQzegtzsBgXp3Pxs-228">
          <mxGeometry x="20" y="120" width="630" height="150" as="geometry" />
        </mxCell>
        <mxCell id="PJhLAQzegtzsBgXp3Pxs-232" value="Không thành công" style="text;html=1;fontSize=11;" vertex="1" parent="PJhLAQzegtzsBgXp3Pxs-231">
          <mxGeometry width="100" height="20" relative="1" as="geometry">
            <mxPoint x="20" y="30" as="offset" />
          </mxGeometry>
        </mxCell>
        <mxCell id="PJhLAQzegtzsBgXp3Pxs-233" value="Thành công" style="line;strokeWidth=1;dashed=1;labelPosition=center;verticalLabelPosition=bottom;align=left;verticalAlign=top;spacingLeft=20;spacingTop=15;html=1;whiteSpace=wrap;" vertex="1" parent="PJhLAQzegtzsBgXp3Pxs-231">
          <mxGeometry y="75" width="630" height="10" as="geometry" />
        </mxCell>
        <mxCell id="PJhLAQzegtzsBgXp3Pxs-234" value="Kiểm tra dữ liệu hợp lệ" style="html=1;verticalAlign=bottom;endArrow=block;curved=0;rounded=0;" edge="1" parent="1" source="PJhLAQzegtzsBgXp3Pxs-223" target="PJhLAQzegtzsBgXp3Pxs-226">
          <mxGeometry width="80" relative="1" as="geometry">
            <mxPoint x="-1260" y="900" as="sourcePoint" />
            <mxPoint x="-1180" y="900" as="targetPoint" />
            <Array as="points">
              <mxPoint x="-1250" y="900" />
            </Array>
          </mxGeometry>
        </mxCell>
        <mxCell id="PJhLAQzegtzsBgXp3Pxs-235" value="Thông báo lỗi" style="html=1;verticalAlign=bottom;endArrow=open;dashed=1;endSize=8;rounded=0;" edge="1" parent="1" source="PJhLAQzegtzsBgXp3Pxs-223" target="PJhLAQzegtzsBgXp3Pxs-221">
          <mxGeometry x="0.003" relative="1" as="geometry">
            <mxPoint x="-1300" y="940" as="sourcePoint" />
            <mxPoint x="-1285" y="950" as="targetPoint" />
            <Array as="points">
              <mxPoint x="-1390" y="960" />
            </Array>
            <mxPoint as="offset" />
          </mxGeometry>
        </mxCell>
        <mxCell id="PJhLAQzegtzsBgXp3Pxs-236" value="Thông tin nhập vào&lt;br style=&quot;border-color: var(--border-color);&quot;&gt;không hợp lệ" style="html=1;verticalAlign=bottom;endArrow=open;dashed=1;endSize=8;rounded=0;" edge="1" parent="1" source="PJhLAQzegtzsBgXp3Pxs-226" target="PJhLAQzegtzsBgXp3Pxs-223">
          <mxGeometry relative="1" as="geometry">
            <mxPoint x="-1165" y="1020" as="sourcePoint" />
            <mxPoint x="-1315" y="995" as="targetPoint" />
            <Array as="points">
              <mxPoint x="-1220" y="950" />
            </Array>
          </mxGeometry>
        </mxCell>
        <mxCell id="PJhLAQzegtzsBgXp3Pxs-237" value="Thông báo lỗi" style="html=1;verticalAlign=bottom;endArrow=open;dashed=1;endSize=8;rounded=0;" edge="1" parent="1" source="PJhLAQzegtzsBgXp3Pxs-223" target="PJhLAQzegtzsBgXp3Pxs-221">
          <mxGeometry relative="1" as="geometry">
            <mxPoint x="-1305" y="1130" as="sourcePoint" />
            <mxPoint x="-1470.189655172414" y="1130" as="targetPoint" />
            <Array as="points">
              <mxPoint x="-1390" y="1100" />
            </Array>
          </mxGeometry>
        </mxCell>
        <mxCell id="PJhLAQzegtzsBgXp3Pxs-238" value="Thêm thành công" style="html=1;verticalAlign=bottom;endArrow=open;dashed=1;endSize=8;rounded=0;" edge="1" parent="1" source="PJhLAQzegtzsBgXp3Pxs-227" target="PJhLAQzegtzsBgXp3Pxs-223">
          <mxGeometry relative="1" as="geometry">
            <mxPoint x="-1145" y="1200" as="sourcePoint" />
            <mxPoint x="-1295" y="1200" as="targetPoint" />
            <Array as="points">
              <mxPoint x="-1220" y="1150" />
            </Array>
            <mxPoint as="offset" />
          </mxGeometry>
        </mxCell>
        <mxCell id="PJhLAQzegtzsBgXp3Pxs-239" value="Thêm thất bại" style="html=1;verticalAlign=bottom;endArrow=open;dashed=1;endSize=8;rounded=0;" edge="1" parent="1" source="PJhLAQzegtzsBgXp3Pxs-227" target="PJhLAQzegtzsBgXp3Pxs-223">
          <mxGeometry relative="1" as="geometry">
            <mxPoint x="-1150" y="1100" as="sourcePoint" />
            <mxPoint x="-1295" y="1120" as="targetPoint" />
            <Array as="points">
              <mxPoint x="-1210" y="1080" />
            </Array>
          </mxGeometry>
        </mxCell>
        <mxCell id="PJhLAQzegtzsBgXp3Pxs-240" value="CSDL" style="shape=umlLifeline;perimeter=lifelinePerimeter;whiteSpace=wrap;html=1;container=1;dropTarget=0;collapsible=0;recursiveResize=0;outlineConnect=0;portConstraint=eastwest;newEdgeStyle={&quot;curved&quot;:0,&quot;rounded&quot;:0};" vertex="1" parent="1">
          <mxGeometry x="-1030" y="780" width="80" height="430" as="geometry" />
        </mxCell>
        <mxCell id="PJhLAQzegtzsBgXp3Pxs-241" value="" style="html=1;points=[[0,0,0,0,5],[0,1,0,0,-5],[1,0,0,0,5],[1,1,0,0,-5]];perimeter=orthogonalPerimeter;outlineConnect=0;targetShapes=umlLifeline;portConstraint=eastwest;newEdgeStyle={&quot;curved&quot;:0,&quot;rounded&quot;:0};" vertex="1" parent="PJhLAQzegtzsBgXp3Pxs-240">
          <mxGeometry x="35" y="240" width="10" height="40" as="geometry" />
        </mxCell>
        <mxCell id="PJhLAQzegtzsBgXp3Pxs-242" value="" style="edgeStyle=orthogonalEdgeStyle;rounded=0;orthogonalLoop=1;jettySize=auto;html=1;curved=0;" edge="1" parent="1" source="PJhLAQzegtzsBgXp3Pxs-226" target="PJhLAQzegtzsBgXp3Pxs-241">
          <mxGeometry relative="1" as="geometry">
            <Array as="points">
              <mxPoint x="-1070" y="1020" />
              <mxPoint x="-1070" y="1020" />
            </Array>
          </mxGeometry>
        </mxCell>
        <mxCell id="PJhLAQzegtzsBgXp3Pxs-243" value="Thêm yêu cầu" style="edgeLabel;html=1;align=center;verticalAlign=middle;resizable=0;points=[];" vertex="1" connectable="0" parent="PJhLAQzegtzsBgXp3Pxs-242">
          <mxGeometry x="0.1887" y="1" relative="1" as="geometry">
            <mxPoint x="-8" y="-19" as="offset" />
          </mxGeometry>
        </mxCell>
        <mxCell id="PJhLAQzegtzsBgXp3Pxs-244" value="Kết quả" style="html=1;verticalAlign=bottom;endArrow=open;dashed=1;endSize=8;curved=0;rounded=0;exitX=0.5;exitY=1;exitDx=0;exitDy=0;exitPerimeter=0;" edge="1" parent="1" source="PJhLAQzegtzsBgXp3Pxs-241" target="PJhLAQzegtzsBgXp3Pxs-227">
          <mxGeometry relative="1" as="geometry">
            <mxPoint x="-830" y="860" as="sourcePoint" />
            <mxPoint x="-910" y="860" as="targetPoint" />
          </mxGeometry>
        </mxCell>
        <mxCell id="PJhLAQzegtzsBgXp3Pxs-245" value="Thông báo thành công" style="html=1;verticalAlign=bottom;endArrow=open;dashed=1;endSize=8;rounded=0;" edge="1" parent="1" source="PJhLAQzegtzsBgXp3Pxs-223" target="PJhLAQzegtzsBgXp3Pxs-221">
          <mxGeometry x="0.002" relative="1" as="geometry">
            <mxPoint x="-1295" y="1220" as="sourcePoint" />
            <mxPoint x="-1460.189655172414" y="1220" as="targetPoint" />
            <Array as="points">
              <mxPoint x="-1360" y="1170" />
            </Array>
            <mxPoint as="offset" />
          </mxGeometry>
        </mxCell>
        <mxCell id="PJhLAQzegtzsBgXp3Pxs-246" value="&lt;div style=&quot;text-align: center;&quot;&gt;&lt;span style=&quot;background-color: initial; font-size: 18px;&quot;&gt;&lt;b&gt;CREATE TICKET&lt;/b&gt;&lt;/span&gt;&lt;/div&gt;" style="text;whiteSpace=wrap;html=1;" vertex="1" parent="1">
          <mxGeometry x="-860" y="700" width="250" height="30" as="geometry" />
        </mxCell>
        <mxCell id="PJhLAQzegtzsBgXp3Pxs-247" value="&amp;nbsp;" style="shape=umlLifeline;perimeter=lifelinePerimeter;whiteSpace=wrap;html=1;container=1;dropTarget=0;collapsible=0;recursiveResize=0;outlineConnect=0;portConstraint=eastwest;newEdgeStyle={&quot;curved&quot;:0,&quot;rounded&quot;:0};participant=umlActor;" vertex="1" parent="1">
          <mxGeometry x="-700" y="770" width="20" height="390" as="geometry" />
        </mxCell>
        <mxCell id="PJhLAQzegtzsBgXp3Pxs-248" value="Giao diện" style="shape=umlLifeline;perimeter=lifelinePerimeter;whiteSpace=wrap;html=1;container=1;dropTarget=0;collapsible=0;recursiveResize=0;outlineConnect=0;portConstraint=eastwest;newEdgeStyle={&quot;curved&quot;:0,&quot;rounded&quot;:0};" vertex="1" parent="1">
          <mxGeometry x="-560" y="770" width="80" height="390" as="geometry" />
        </mxCell>
        <mxCell id="PJhLAQzegtzsBgXp3Pxs-249" value="" style="html=1;points=[[0,0,0,0,5],[0,1,0,0,-5],[1,0,0,0,5],[1,1,0,0,-5]];perimeter=orthogonalPerimeter;outlineConnect=0;targetShapes=umlLifeline;portConstraint=eastwest;newEdgeStyle={&quot;curved&quot;:0,&quot;rounded&quot;:0};" vertex="1" parent="PJhLAQzegtzsBgXp3Pxs-248">
          <mxGeometry x="35" y="80" width="10" height="270" as="geometry" />
        </mxCell>
        <mxCell id="PJhLAQzegtzsBgXp3Pxs-250" value="Duyệt yêu cầu" style="html=1;verticalAlign=bottom;startArrow=none;endArrow=block;startSize=8;rounded=0;startFill=0;strokeColor=default;" edge="1" parent="1" source="PJhLAQzegtzsBgXp3Pxs-247" target="PJhLAQzegtzsBgXp3Pxs-249">
          <mxGeometry x="0.002" relative="1" as="geometry">
            <mxPoint x="-630.189655172414" y="850" as="sourcePoint" />
            <mxPoint x="-495" y="850" as="targetPoint" />
            <Array as="points">
              <mxPoint x="-590" y="850" />
            </Array>
            <mxPoint as="offset" />
          </mxGeometry>
        </mxCell>
        <mxCell id="PJhLAQzegtzsBgXp3Pxs-251" value="Hệ thống" style="shape=umlLifeline;perimeter=lifelinePerimeter;whiteSpace=wrap;html=1;container=1;dropTarget=0;collapsible=0;recursiveResize=0;outlineConnect=0;portConstraint=eastwest;newEdgeStyle={&quot;curved&quot;:0,&quot;rounded&quot;:0};" vertex="1" parent="1">
          <mxGeometry x="-400" y="770" width="80" height="390" as="geometry" />
        </mxCell>
        <mxCell id="PJhLAQzegtzsBgXp3Pxs-252" value="" style="html=1;points=[[0,0,0,0,5],[0,1,0,0,-5],[1,0,0,0,5],[1,1,0,0,-5]];perimeter=orthogonalPerimeter;outlineConnect=0;targetShapes=umlLifeline;portConstraint=eastwest;newEdgeStyle={&quot;curved&quot;:0,&quot;rounded&quot;:0};" vertex="1" parent="PJhLAQzegtzsBgXp3Pxs-251">
          <mxGeometry x="35" y="120" width="10" height="120" as="geometry" />
        </mxCell>
        <mxCell id="PJhLAQzegtzsBgXp3Pxs-253" value="" style="html=1;points=[[0,0,0,0,5],[0,1,0,0,-5],[1,0,0,0,5],[1,1,0,0,-5]];perimeter=orthogonalPerimeter;outlineConnect=0;targetShapes=umlLifeline;portConstraint=eastwest;newEdgeStyle={&quot;curved&quot;:0,&quot;rounded&quot;:0};" vertex="1" parent="PJhLAQzegtzsBgXp3Pxs-251">
          <mxGeometry x="35" y="280" width="10" height="60" as="geometry" />
        </mxCell>
        <mxCell id="PJhLAQzegtzsBgXp3Pxs-254" value="alt" style="shape=umlFrame;whiteSpace=wrap;html=1;pointerEvents=0;recursiveResize=0;container=1;collapsible=0;width=40;height=25;" vertex="1" parent="1">
          <mxGeometry x="-830" y="910" width="690" height="270" as="geometry" />
        </mxCell>
        <mxCell id="PJhLAQzegtzsBgXp3Pxs-255" value="Không hợp lệ" style="text;html=1;fontSize=11;" vertex="1" parent="PJhLAQzegtzsBgXp3Pxs-254">
          <mxGeometry width="100" height="20" relative="1" as="geometry">
            <mxPoint x="20" y="30" as="offset" />
          </mxGeometry>
        </mxCell>
        <mxCell id="PJhLAQzegtzsBgXp3Pxs-256" value="Hợp lệ" style="line;strokeWidth=1;dashed=1;labelPosition=center;verticalLabelPosition=bottom;align=left;verticalAlign=top;spacingLeft=20;spacingTop=15;html=1;whiteSpace=wrap;" vertex="1" parent="PJhLAQzegtzsBgXp3Pxs-254">
          <mxGeometry y="55" width="690" height="10" as="geometry" />
        </mxCell>
        <mxCell id="PJhLAQzegtzsBgXp3Pxs-260" value="Kiểm tra dữ liệu hợp lệ" style="html=1;verticalAlign=bottom;endArrow=block;curved=0;rounded=0;" edge="1" parent="1" source="PJhLAQzegtzsBgXp3Pxs-249" target="PJhLAQzegtzsBgXp3Pxs-252">
          <mxGeometry width="80" relative="1" as="geometry">
            <mxPoint x="-480" y="890" as="sourcePoint" />
            <mxPoint x="-400" y="890" as="targetPoint" />
            <Array as="points">
              <mxPoint x="-470" y="890" />
            </Array>
          </mxGeometry>
        </mxCell>
        <mxCell id="PJhLAQzegtzsBgXp3Pxs-261" value="Thông báo lỗi" style="html=1;verticalAlign=bottom;endArrow=open;dashed=1;endSize=8;rounded=0;" edge="1" parent="1" source="PJhLAQzegtzsBgXp3Pxs-249" target="PJhLAQzegtzsBgXp3Pxs-247">
          <mxGeometry x="0.003" relative="1" as="geometry">
            <mxPoint x="-520" y="930" as="sourcePoint" />
            <mxPoint x="-505" y="940" as="targetPoint" />
            <Array as="points">
              <mxPoint x="-610" y="950" />
            </Array>
            <mxPoint as="offset" />
          </mxGeometry>
        </mxCell>
        <mxCell id="PJhLAQzegtzsBgXp3Pxs-262" value="Thông tin nhập vào&lt;br style=&quot;border-color: var(--border-color);&quot;&gt;không hợp lệ" style="html=1;verticalAlign=bottom;endArrow=open;dashed=1;endSize=8;rounded=0;" edge="1" parent="1" source="PJhLAQzegtzsBgXp3Pxs-252" target="PJhLAQzegtzsBgXp3Pxs-249">
          <mxGeometry relative="1" as="geometry">
            <mxPoint x="-385" y="1010" as="sourcePoint" />
            <mxPoint x="-535" y="985" as="targetPoint" />
            <Array as="points">
              <mxPoint x="-440" y="940" />
            </Array>
          </mxGeometry>
        </mxCell>
        <mxCell id="PJhLAQzegtzsBgXp3Pxs-264" value="Thêm thành công" style="html=1;verticalAlign=bottom;endArrow=open;dashed=1;endSize=8;rounded=0;" edge="1" parent="1" source="PJhLAQzegtzsBgXp3Pxs-253" target="PJhLAQzegtzsBgXp3Pxs-249">
          <mxGeometry relative="1" as="geometry">
            <mxPoint x="-365" y="1190" as="sourcePoint" />
            <mxPoint x="-515" y="1190" as="targetPoint" />
            <mxPoint as="offset" />
          </mxGeometry>
        </mxCell>
        <mxCell id="PJhLAQzegtzsBgXp3Pxs-266" value="CSDL" style="shape=umlLifeline;perimeter=lifelinePerimeter;whiteSpace=wrap;html=1;container=1;dropTarget=0;collapsible=0;recursiveResize=0;outlineConnect=0;portConstraint=eastwest;newEdgeStyle={&quot;curved&quot;:0,&quot;rounded&quot;:0};" vertex="1" parent="1">
          <mxGeometry x="-250" y="770" width="80" height="390" as="geometry" />
        </mxCell>
        <mxCell id="PJhLAQzegtzsBgXp3Pxs-267" value="" style="html=1;points=[[0,0,0,0,5],[0,1,0,0,-5],[1,0,0,0,5],[1,1,0,0,-5]];perimeter=orthogonalPerimeter;outlineConnect=0;targetShapes=umlLifeline;portConstraint=eastwest;newEdgeStyle={&quot;curved&quot;:0,&quot;rounded&quot;:0};" vertex="1" parent="PJhLAQzegtzsBgXp3Pxs-266">
          <mxGeometry x="35" y="240" width="10" height="40" as="geometry" />
        </mxCell>
        <mxCell id="PJhLAQzegtzsBgXp3Pxs-268" value="" style="edgeStyle=orthogonalEdgeStyle;rounded=0;orthogonalLoop=1;jettySize=auto;html=1;curved=0;" edge="1" parent="1" source="PJhLAQzegtzsBgXp3Pxs-252" target="PJhLAQzegtzsBgXp3Pxs-267">
          <mxGeometry relative="1" as="geometry">
            <Array as="points">
              <mxPoint x="-290" y="1010" />
              <mxPoint x="-290" y="1010" />
            </Array>
          </mxGeometry>
        </mxCell>
        <mxCell id="PJhLAQzegtzsBgXp3Pxs-269" value="Lấy thông tin yêu cầu" style="edgeLabel;html=1;align=center;verticalAlign=middle;resizable=0;points=[];" vertex="1" connectable="0" parent="PJhLAQzegtzsBgXp3Pxs-268">
          <mxGeometry x="0.1887" y="1" relative="1" as="geometry">
            <mxPoint x="-8" y="-19" as="offset" />
          </mxGeometry>
        </mxCell>
        <mxCell id="PJhLAQzegtzsBgXp3Pxs-270" value="Tạo phiếu xuất kho" style="html=1;verticalAlign=bottom;endArrow=open;dashed=1;endSize=8;curved=0;rounded=0;exitX=0.5;exitY=1;exitDx=0;exitDy=0;exitPerimeter=0;" edge="1" parent="1" source="PJhLAQzegtzsBgXp3Pxs-267" target="PJhLAQzegtzsBgXp3Pxs-253">
          <mxGeometry relative="1" as="geometry">
            <mxPoint x="-50" y="850" as="sourcePoint" />
            <mxPoint x="-130" y="850" as="targetPoint" />
          </mxGeometry>
        </mxCell>
        <mxCell id="PJhLAQzegtzsBgXp3Pxs-271" value="Thông báo thành công" style="html=1;verticalAlign=bottom;endArrow=open;dashed=1;endSize=8;rounded=0;" edge="1" parent="1" source="PJhLAQzegtzsBgXp3Pxs-249" target="PJhLAQzegtzsBgXp3Pxs-247">
          <mxGeometry x="0.002" relative="1" as="geometry">
            <mxPoint x="-515" y="1210" as="sourcePoint" />
            <mxPoint x="-680.189655172414" y="1210" as="targetPoint" />
            <Array as="points">
              <mxPoint x="-580" y="1120" />
            </Array>
            <mxPoint as="offset" />
          </mxGeometry>
        </mxCell>
      </root>
    </mxGraphModel>
  </diagram>
</mxfile>
